<svg width="85" height="28" viewBox="0 0 85 28" fill="none" xmlns="http://www.w3.org/2000/svg">
<g id="Frame 275">
<g id="Frame 250">
<g id="solar:arrow-left-linear">
<path id="Vector" d="M20.6666 14H7.33331M7.33331 14L12.3333 9M7.33331 14L12.3333 19" stroke="#222222" stroke-width="1.5" stroke-linecap="round" stroke-linejoin="round"/>
</g>
</g>
<path id="Retour" d="M36.98 19V8.92H40.963C41.061 8.92 41.1777 8.92467 41.313 8.934C41.4483 8.93867 41.579 8.95267 41.705 8.976C42.251 9.06 42.7083 9.24667 43.077 9.536C43.4503 9.82533 43.7303 10.1917 43.917 10.635C44.1037 11.0737 44.197 11.5613 44.197 12.098C44.197 12.8773 43.994 13.554 43.588 14.128C43.182 14.6973 42.587 15.0543 41.803 15.199L41.327 15.276H38.226V19H36.98ZM42.979 19L40.991 14.898L42.223 14.52L44.407 19H42.979ZM38.226 14.093H40.921C41.0097 14.093 41.11 14.0883 41.222 14.079C41.3387 14.0697 41.4483 14.0533 41.551 14.03C41.873 13.9553 42.1343 13.82 42.335 13.624C42.5403 13.4233 42.6897 13.19 42.783 12.924C42.8763 12.6533 42.923 12.378 42.923 12.098C42.923 11.818 42.8763 11.545 42.783 11.279C42.6897 11.0083 42.5403 10.7727 42.335 10.572C42.1343 10.3713 41.873 10.236 41.551 10.166C41.4483 10.138 41.3387 10.1217 41.222 10.117C41.11 10.1077 41.0097 10.103 40.921 10.103H38.226V14.093ZM49.2248 19.21C48.4828 19.21 47.8341 19.0467 47.2788 18.72C46.7281 18.3887 46.2988 17.929 45.9908 17.341C45.6828 16.7483 45.5288 16.0577 45.5288 15.269C45.5288 14.443 45.6804 13.729 45.9838 13.127C46.2871 12.5203 46.7094 12.0537 47.2508 11.727C47.7968 11.3957 48.4361 11.23 49.1688 11.23C49.9294 11.23 50.5758 11.405 51.1078 11.755C51.6444 12.105 52.0458 12.6043 52.3118 13.253C52.5824 13.9017 52.6991 14.674 52.6618 15.57H51.4018V15.122C51.3878 14.1933 51.1988 13.5003 50.8348 13.043C50.4708 12.581 49.9294 12.35 49.2108 12.35C48.4408 12.35 47.8551 12.5973 47.4538 13.092C47.0524 13.5867 46.8518 14.296 46.8518 15.22C46.8518 16.1113 47.0524 16.802 47.4538 17.292C47.8551 17.782 48.4268 18.027 49.1688 18.027C49.6681 18.027 50.1021 17.9127 50.4708 17.684C50.8394 17.4553 51.1288 17.1263 51.3388 16.697L52.5358 17.11C52.2418 17.7773 51.7984 18.2953 51.2058 18.664C50.6178 19.028 49.9574 19.21 49.2248 19.21ZM46.4318 15.57V14.569H52.0178V15.57H46.4318ZM58.4412 19C57.9932 19.0887 57.5499 19.1237 57.1112 19.105C56.6772 19.091 56.2899 19.0047 55.9492 18.846C55.6086 18.6827 55.3496 18.4307 55.1722 18.09C55.0229 17.7913 54.9412 17.4903 54.9272 17.187C54.9179 16.879 54.9132 16.5313 54.9132 16.144V9.34H56.1592V16.088C56.1592 16.396 56.1616 16.6597 56.1662 16.879C56.1756 17.0983 56.2246 17.2873 56.3132 17.446C56.4812 17.7447 56.7472 17.9197 57.1112 17.971C57.4799 18.0223 57.9232 18.0083 58.4412 17.929V19ZM53.3802 12.469V11.44H58.4412V12.469H53.3802ZM62.8816 19.21C62.1303 19.21 61.4816 19.0397 60.9356 18.699C60.3943 18.3583 59.9766 17.887 59.6826 17.285C59.3886 16.683 59.2416 15.9923 59.2416 15.213C59.2416 14.4197 59.391 13.7243 59.6896 13.127C59.9883 12.5297 60.4106 12.0653 60.9566 11.734C61.5026 11.398 62.1443 11.23 62.8816 11.23C63.6376 11.23 64.2886 11.4003 64.8346 11.741C65.3806 12.077 65.7983 12.546 66.0876 13.148C66.3816 13.7453 66.5286 14.4337 66.5286 15.213C66.5286 16.0017 66.3816 16.697 66.0876 17.299C65.7936 17.8963 65.3736 18.3653 64.8276 18.706C64.2816 19.042 63.633 19.21 62.8816 19.21ZM62.8816 18.027C63.6656 18.027 64.249 17.7657 64.6316 17.243C65.0143 16.7203 65.2056 16.0437 65.2056 15.213C65.2056 14.359 65.012 13.68 64.6246 13.176C64.2373 12.6673 63.6563 12.413 62.8816 12.413C62.3543 12.413 61.9203 12.532 61.5796 12.77C61.239 13.008 60.9846 13.337 60.8166 13.757C60.6486 14.177 60.5646 14.6623 60.5646 15.213C60.5646 16.0623 60.7606 16.7437 61.1526 17.257C61.5446 17.7703 62.121 18.027 62.8816 18.027ZM70.9398 19.196C70.4545 19.196 70.0368 19.119 69.6868 18.965C69.3415 18.811 69.0545 18.6057 68.8258 18.349C68.5972 18.0923 68.4175 17.8077 68.2868 17.495C68.1562 17.1823 68.0628 16.8627 68.0068 16.536C67.9555 16.2093 67.9298 15.9037 67.9298 15.619V11.44H69.1898V15.227C69.1898 15.5817 69.2225 15.9247 69.2878 16.256C69.3532 16.5873 69.4628 16.886 69.6168 17.152C69.7755 17.418 69.9855 17.628 70.2468 17.782C70.5128 17.936 70.8442 18.013 71.2408 18.013C71.5535 18.013 71.8382 17.9593 72.0948 17.852C72.3515 17.7447 72.5708 17.586 72.7528 17.376C72.9348 17.1613 73.0748 16.8907 73.1728 16.564C73.2708 16.2373 73.3198 15.857 73.3198 15.423L74.1388 15.675C74.1388 16.403 74.0058 17.0307 73.7398 17.558C73.4785 18.0853 73.1075 18.4913 72.6268 18.776C72.1508 19.056 71.5885 19.196 70.9398 19.196ZM73.4598 19V16.977H73.3198V11.44H74.5728V19H73.4598ZM76.5327 19V11.44H77.6457V13.267L77.4637 13.029C77.5524 12.7957 77.6667 12.581 77.8067 12.385C77.9514 12.189 78.1124 12.028 78.2897 11.902C78.4857 11.7433 78.7074 11.622 78.9547 11.538C79.2021 11.454 79.4541 11.405 79.7107 11.391C79.9674 11.3723 80.2077 11.3887 80.4317 11.44V12.609C80.1704 12.539 79.8834 12.5203 79.5707 12.553C79.2581 12.5857 78.9687 12.7 78.7027 12.896C78.4601 13.0687 78.2711 13.2787 78.1357 13.526C78.0051 13.7733 77.9141 14.0417 77.8627 14.331C77.8114 14.6157 77.7857 14.9073 77.7857 15.206V19H76.5327Z" fill="#222222"/>
</g>
</svg>
