<svg width="344" height="232" viewBox="0 0 344 232" fill="none" xmlns="http://www.w3.org/2000/svg">
<g id="Frame 668">
<rect width="344" height="232" rx="8" fill="white"/>
<g id="Frame 667">
<g id="famicons:close-circle">
<path id="Vector" d="M172 27.9688C152.96 27.9688 137.469 43.4597 137.469 62.5C137.469 81.5403 152.96 97.0312 172 97.0312C191.04 97.0312 206.531 81.5403 206.531 62.5C206.531 43.4597 191.04 27.9688 172 27.9688ZM184.503 71.2474C184.76 71.4916 184.965 71.7848 185.107 72.1096C185.249 72.4345 185.325 72.7846 185.329 73.1391C185.334 73.4936 185.267 73.8454 185.134 74.1739C185 74.5023 184.802 74.8006 184.551 75.0513C184.301 75.302 184.002 75.5 183.674 75.6336C183.345 75.7672 182.994 75.8337 182.639 75.8291C182.285 75.8246 181.935 75.7491 181.61 75.6072C181.285 75.4652 180.992 75.2597 180.747 75.0026L172 66.2569L163.253 75.0026C162.75 75.4798 162.082 75.7418 161.389 75.7329C160.696 75.7241 160.035 75.445 159.545 74.9552C159.055 74.4653 158.776 73.8036 158.767 73.1109C158.758 72.4183 159.02 71.7496 159.497 71.2474L168.243 62.5L159.497 53.7526C159.02 53.2504 158.758 52.5817 158.767 51.8891C158.776 51.1964 159.055 50.5347 159.545 50.0448C160.035 49.555 160.696 49.2759 161.389 49.2671C162.082 49.2582 162.75 49.5202 163.253 49.9974L172 58.7431L180.747 49.9974C181.25 49.5202 181.918 49.2582 182.611 49.2671C183.304 49.2759 183.965 49.555 184.455 50.0448C184.945 50.5347 185.224 51.1964 185.233 51.8891C185.242 52.5817 184.98 53.2504 184.503 53.7526L175.757 62.5L184.503 71.2474Z" fill="#DF334D"/>
</g>
<path id="Vous &#195;&#170;tes s&#195;&#187;r de vouloir annuler ce processus" d="M48.673 130L44.705 118.48H45.929L49.441 128.664L52.977 118.48H54.201L50.233 130H48.673ZM58.0561 130.24C57.1975 130.24 56.4641 130.045 55.8561 129.656C55.2481 129.267 54.7815 128.728 54.4561 128.04C54.1308 127.352 53.9681 126.563 53.9681 125.672C53.9681 124.765 54.1335 123.971 54.4641 123.288C54.7948 122.605 55.2641 122.075 55.8721 121.696C56.4855 121.312 57.2135 121.12 58.0561 121.12C58.9201 121.12 59.6561 121.315 60.2641 121.704C60.8775 122.088 61.3441 122.624 61.6641 123.312C61.9895 123.995 62.1521 124.781 62.1521 125.672C62.1521 126.579 61.9895 127.376 61.6641 128.064C61.3388 128.747 60.8695 129.28 60.2561 129.664C59.6428 130.048 58.9095 130.24 58.0561 130.24ZM58.0561 129.112C59.0161 129.112 59.7308 128.795 60.2001 128.16C60.6695 127.52 60.9041 126.691 60.9041 125.672C60.9041 124.627 60.6668 123.795 60.1921 123.176C59.7228 122.557 59.0108 122.248 58.0561 122.248C57.4108 122.248 56.8775 122.395 56.4561 122.688C56.0401 122.976 55.7281 123.379 55.5201 123.896C55.3175 124.408 55.2161 125 55.2161 125.672C55.2161 126.712 55.4561 127.547 55.9361 128.176C56.4161 128.8 57.1228 129.112 58.0561 129.112ZM67.2209 130.216C66.7035 130.216 66.2502 130.136 65.8609 129.976C65.4769 129.816 65.1489 129.6 64.8769 129.328C64.6102 129.056 64.3942 128.747 64.2289 128.4C64.0635 128.048 63.9435 127.677 63.8689 127.288C63.7942 126.893 63.7569 126.501 63.7569 126.112V121.36H64.9409V125.768C64.9409 126.243 64.9862 126.683 65.0769 127.088C65.1675 127.493 65.3115 127.848 65.5089 128.152C65.7115 128.451 65.9702 128.683 66.2849 128.848C66.6049 129.013 66.9915 129.096 67.4449 129.096C67.8609 129.096 68.2262 129.024 68.5409 128.88C68.8609 128.736 69.1275 128.531 69.3409 128.264C69.5595 127.992 69.7249 127.664 69.8369 127.28C69.9489 126.891 70.0049 126.453 70.0049 125.968L70.8369 126.152C70.8369 127.037 70.6822 127.781 70.3729 128.384C70.0635 128.987 69.6369 129.443 69.0929 129.752C68.5489 130.061 67.9249 130.216 67.2209 130.216ZM70.1249 130V127.872H70.0049V121.36H71.1809V130H70.1249ZM76.6409 130.232C75.6275 130.232 74.7929 130.013 74.1369 129.576C73.4862 129.139 73.0862 128.531 72.9369 127.752L74.1369 127.552C74.2649 128.043 74.5555 128.435 75.0089 128.728C75.4675 129.016 76.0329 129.16 76.7049 129.16C77.3609 129.16 77.8782 129.024 78.2569 128.752C78.6355 128.475 78.8249 128.099 78.8249 127.624C78.8249 127.357 78.7635 127.141 78.6409 126.976C78.5235 126.805 78.2809 126.648 77.9129 126.504C77.5449 126.36 76.9955 126.189 76.2649 125.992C75.4809 125.779 74.8675 125.565 74.4249 125.352C73.9822 125.139 73.6675 124.893 73.4809 124.616C73.2942 124.333 73.2009 123.989 73.2009 123.584C73.2009 123.093 73.3395 122.664 73.6169 122.296C73.8942 121.923 74.2782 121.635 74.7689 121.432C75.2595 121.224 75.8302 121.12 76.4809 121.12C77.1315 121.12 77.7129 121.227 78.2249 121.44C78.7422 121.648 79.1582 121.941 79.4729 122.32C79.7875 122.699 79.9742 123.139 80.0329 123.64L78.8329 123.856C78.7529 123.349 78.4995 122.949 78.0729 122.656C77.6515 122.357 77.1155 122.203 76.4649 122.192C75.8515 122.176 75.3529 122.293 74.9689 122.544C74.5849 122.789 74.3929 123.117 74.3929 123.528C74.3929 123.757 74.4622 123.955 74.6009 124.12C74.7395 124.28 74.9902 124.432 75.3529 124.576C75.7209 124.72 76.2435 124.877 76.9209 125.048C77.7155 125.251 78.3395 125.464 78.7929 125.688C79.2462 125.912 79.5689 126.176 79.7609 126.48C79.9529 126.784 80.0489 127.16 80.0489 127.608C80.0489 128.424 79.7449 129.067 79.1369 129.536C78.5342 130 77.7022 130.232 76.6409 130.232ZM86.2503 120L88.0823 117.84H89.1703L91.0023 120H89.8023L88.6263 118.616L87.4503 120H86.2503ZM88.6823 130.24C87.8396 130.24 87.1089 130.053 86.4903 129.68C85.8769 129.307 85.3996 128.781 85.0583 128.104C84.7169 127.427 84.5463 126.632 84.5463 125.72C84.5463 124.776 84.7143 123.96 85.0503 123.272C85.3863 122.584 85.8583 122.053 86.4663 121.68C87.0796 121.307 87.8023 121.12 88.6343 121.12C89.4876 121.12 90.2156 121.317 90.8183 121.712C91.4209 122.101 91.8769 122.661 92.1863 123.392C92.4956 124.123 92.6369 124.995 92.6103 126.008H91.4103V125.592C91.3889 124.472 91.1463 123.627 90.6823 123.056C90.2236 122.485 89.5516 122.2 88.6663 122.2C87.7383 122.2 87.0263 122.501 86.5303 123.104C86.0396 123.707 85.7943 124.565 85.7943 125.68C85.7943 126.768 86.0396 127.613 86.5303 128.216C87.0263 128.813 87.7276 129.112 88.6343 129.112C89.2529 129.112 89.7916 128.971 90.2503 128.688C90.7143 128.4 91.0796 127.987 91.3463 127.448L92.4423 127.872C92.1009 128.624 91.5969 129.208 90.9303 129.624C90.2689 130.035 89.5196 130.24 88.6823 130.24ZM85.3783 126.008V125.024H91.9783V126.008H85.3783ZM99.0896 130C98.6043 130.101 98.1243 130.141 97.6496 130.12C97.1803 130.099 96.759 129.997 96.3856 129.816C96.0176 129.635 95.7376 129.352 95.5456 128.968C95.391 128.648 95.3056 128.325 95.2896 128C95.279 127.669 95.2736 127.293 95.2736 126.872V118.96H96.4416V126.824C96.4416 127.187 96.4443 127.491 96.4496 127.736C96.4603 127.976 96.5163 128.189 96.6176 128.376C96.8096 128.733 97.1136 128.947 97.5296 129.016C97.951 129.085 98.471 129.069 99.0896 128.968V130ZM93.4256 122.368V121.36H99.0896V122.368H93.4256ZM104.135 130.24C103.293 130.24 102.562 130.053 101.943 129.68C101.33 129.307 100.853 128.781 100.511 128.104C100.17 127.427 99.9994 126.632 99.9994 125.72C99.9994 124.776 100.167 123.96 100.503 123.272C100.839 122.584 101.311 122.053 101.919 121.68C102.533 121.307 103.255 121.12 104.087 121.12C104.941 121.12 105.669 121.317 106.271 121.712C106.874 122.101 107.33 122.661 107.639 123.392C107.949 124.123 108.09 124.995 108.063 126.008H106.863V125.592C106.842 124.472 106.599 123.627 106.135 123.056C105.677 122.485 105.005 122.2 104.119 122.2C103.191 122.2 102.479 122.501 101.983 123.104C101.493 123.707 101.247 124.565 101.247 125.68C101.247 126.768 101.493 127.613 101.983 128.216C102.479 128.813 103.181 129.112 104.087 129.112C104.706 129.112 105.245 128.971 105.703 128.688C106.167 128.4 106.533 127.987 106.799 127.448L107.895 127.872C107.554 128.624 107.05 129.208 106.383 129.624C105.722 130.035 104.973 130.24 104.135 130.24ZM100.831 126.008V125.024H107.431V126.008H100.831ZM113.063 130.232C112.049 130.232 111.215 130.013 110.559 129.576C109.908 129.139 109.508 128.531 109.359 127.752L110.559 127.552C110.687 128.043 110.977 128.435 111.431 128.728C111.889 129.016 112.455 129.16 113.127 129.16C113.783 129.16 114.3 129.024 114.679 128.752C115.057 128.475 115.247 128.099 115.247 127.624C115.247 127.357 115.185 127.141 115.063 126.976C114.945 126.805 114.703 126.648 114.335 126.504C113.967 126.36 113.417 126.189 112.687 125.992C111.903 125.779 111.289 125.565 110.847 125.352C110.404 125.139 110.089 124.893 109.903 124.616C109.716 124.333 109.623 123.989 109.623 123.584C109.623 123.093 109.761 122.664 110.039 122.296C110.316 121.923 110.7 121.635 111.191 121.432C111.681 121.224 112.252 121.12 112.903 121.12C113.553 121.12 114.135 121.227 114.647 121.44C115.164 121.648 115.58 121.941 115.895 122.32C116.209 122.699 116.396 123.139 116.455 123.64L115.255 123.856C115.175 123.349 114.921 122.949 114.495 122.656C114.073 122.357 113.537 122.203 112.887 122.192C112.273 122.176 111.775 122.293 111.391 122.544C111.007 122.789 110.815 123.117 110.815 123.528C110.815 123.757 110.884 123.955 111.023 124.12C111.161 124.28 111.412 124.432 111.775 124.576C112.143 124.72 112.665 124.877 113.343 125.048C114.137 125.251 114.761 125.464 115.215 125.688C115.668 125.912 115.991 126.176 116.183 126.48C116.375 126.784 116.471 127.16 116.471 127.608C116.471 128.424 116.167 129.067 115.559 129.536C114.956 130 114.124 130.232 113.063 130.232ZM124.672 130.232C123.659 130.232 122.824 130.013 122.168 129.576C121.517 129.139 121.117 128.531 120.968 127.752L122.168 127.552C122.296 128.043 122.587 128.435 123.04 128.728C123.499 129.016 124.064 129.16 124.736 129.16C125.392 129.16 125.909 129.024 126.288 128.752C126.667 128.475 126.856 128.099 126.856 127.624C126.856 127.357 126.795 127.141 126.672 126.976C126.555 126.805 126.312 126.648 125.944 126.504C125.576 126.36 125.027 126.189 124.296 125.992C123.512 125.779 122.899 125.565 122.456 125.352C122.013 125.139 121.699 124.893 121.512 124.616C121.325 124.333 121.232 123.989 121.232 123.584C121.232 123.093 121.371 122.664 121.648 122.296C121.925 121.923 122.309 121.635 122.8 121.432C123.291 121.224 123.861 121.12 124.512 121.12C125.163 121.12 125.744 121.227 126.256 121.44C126.773 121.648 127.189 121.941 127.504 122.32C127.819 122.699 128.005 123.139 128.064 123.64L126.864 123.856C126.784 123.349 126.531 122.949 126.104 122.656C125.683 122.357 125.147 122.203 124.496 122.192C123.883 122.176 123.384 122.293 123 122.544C122.616 122.789 122.424 123.117 122.424 123.528C122.424 123.757 122.493 123.955 122.632 124.12C122.771 124.28 123.021 124.432 123.384 124.576C123.752 124.72 124.275 124.877 124.952 125.048C125.747 125.251 126.371 125.464 126.824 125.688C127.277 125.912 127.6 126.176 127.792 126.48C127.984 126.784 128.08 127.16 128.08 127.608C128.08 128.424 127.776 129.067 127.168 129.536C126.565 130 125.733 130.232 124.672 130.232ZM131.014 120L132.846 117.84H133.934L135.766 120H134.566L133.39 118.616L132.214 120H131.014ZM133.158 130.216C132.641 130.216 132.188 130.136 131.798 129.976C131.414 129.816 131.086 129.6 130.814 129.328C130.548 129.056 130.332 128.747 130.166 128.4C130.001 128.048 129.881 127.677 129.806 127.288C129.732 126.893 129.694 126.501 129.694 126.112V121.36H130.878V125.768C130.878 126.243 130.924 126.683 131.014 127.088C131.105 127.493 131.249 127.848 131.446 128.152C131.649 128.451 131.908 128.683 132.222 128.848C132.542 129.013 132.929 129.096 133.382 129.096C133.798 129.096 134.164 129.024 134.478 128.88C134.798 128.736 135.065 128.531 135.278 128.264C135.497 127.992 135.662 127.664 135.774 127.28C135.886 126.891 135.942 126.453 135.942 125.968L136.774 126.152C136.774 127.037 136.62 127.781 136.31 128.384C136.001 128.987 135.574 129.443 135.03 129.752C134.486 130.061 133.862 130.216 133.158 130.216ZM136.062 130V127.872H135.942V121.36H137.118V130H136.062ZM139.354 130V121.36H140.41V123.44L140.202 123.168C140.298 122.912 140.424 122.677 140.578 122.464C140.733 122.245 140.901 122.067 141.082 121.928C141.306 121.731 141.568 121.581 141.866 121.48C142.165 121.373 142.466 121.312 142.77 121.296C143.074 121.275 143.352 121.296 143.602 121.36V122.464C143.288 122.384 142.944 122.365 142.57 122.408C142.197 122.451 141.853 122.6 141.538 122.856C141.25 123.08 141.034 123.349 140.89 123.664C140.746 123.973 140.65 124.304 140.602 124.656C140.554 125.003 140.53 125.347 140.53 125.688V130H139.354ZM151.675 130.24C150.87 130.24 150.182 130.04 149.611 129.64C149.04 129.235 148.603 128.688 148.299 128C147.995 127.312 147.843 126.536 147.843 125.672C147.843 124.813 147.992 124.04 148.291 123.352C148.595 122.664 149.03 122.12 149.595 121.72C150.16 121.32 150.838 121.12 151.627 121.12C152.438 121.12 153.12 121.317 153.675 121.712C154.23 122.107 154.648 122.648 154.931 123.336C155.219 124.019 155.363 124.797 155.363 125.672C155.363 126.531 155.222 127.307 154.939 128C154.656 128.688 154.24 129.235 153.691 129.64C153.142 130.04 152.47 130.24 151.675 130.24ZM151.795 129.144C152.408 129.144 152.915 128.995 153.315 128.696C153.715 128.397 154.014 127.987 154.211 127.464C154.408 126.936 154.507 126.339 154.507 125.672C154.507 124.995 154.408 124.397 154.211 123.88C154.014 123.357 153.715 122.949 153.315 122.656C152.92 122.363 152.422 122.216 151.819 122.216C151.2 122.216 150.688 122.368 150.283 122.672C149.878 122.976 149.576 123.389 149.379 123.912C149.187 124.435 149.091 125.021 149.091 125.672C149.091 126.328 149.19 126.92 149.387 127.448C149.59 127.971 149.891 128.384 150.291 128.688C150.691 128.992 151.192 129.144 151.795 129.144ZM154.507 130V123.496H154.379V118.48H155.563V130H154.507ZM161.464 130.24C160.621 130.24 159.89 130.053 159.272 129.68C158.658 129.307 158.181 128.781 157.84 128.104C157.498 127.427 157.328 126.632 157.328 125.72C157.328 124.776 157.496 123.96 157.832 123.272C158.168 122.584 158.64 122.053 159.248 121.68C159.861 121.307 160.584 121.12 161.416 121.12C162.269 121.12 162.997 121.317 163.6 121.712C164.202 122.101 164.658 122.661 164.968 123.392C165.277 124.123 165.418 124.995 165.392 126.008H164.192V125.592C164.17 124.472 163.928 123.627 163.464 123.056C163.005 122.485 162.333 122.2 161.448 122.2C160.52 122.2 159.808 122.501 159.312 123.104C158.821 123.707 158.576 124.565 158.576 125.68C158.576 126.768 158.821 127.613 159.312 128.216C159.808 128.813 160.509 129.112 161.416 129.112C162.034 129.112 162.573 128.971 163.032 128.688C163.496 128.4 163.861 127.987 164.128 127.448L165.224 127.872C164.882 128.624 164.378 129.208 163.712 129.624C163.05 130.035 162.301 130.24 161.464 130.24ZM158.16 126.008V125.024H164.76V126.008H158.16ZM172.706 130L169.57 121.36H170.762L173.314 128.464L175.85 121.36H177.058L173.922 130H172.706ZM181.791 130.24C180.932 130.24 180.199 130.045 179.591 129.656C178.983 129.267 178.516 128.728 178.191 128.04C177.865 127.352 177.703 126.563 177.703 125.672C177.703 124.765 177.868 123.971 178.199 123.288C178.529 122.605 178.999 122.075 179.607 121.696C180.22 121.312 180.948 121.12 181.791 121.12C182.655 121.12 183.391 121.315 183.999 121.704C184.612 122.088 185.079 122.624 185.399 123.312C185.724 123.995 185.887 124.781 185.887 125.672C185.887 126.579 185.724 127.376 185.399 128.064C185.073 128.747 184.604 129.28 183.991 129.664C183.377 130.048 182.644 130.24 181.791 130.24ZM181.791 129.112C182.751 129.112 183.465 128.795 183.935 128.16C184.404 127.52 184.639 126.691 184.639 125.672C184.639 124.627 184.401 123.795 183.927 123.176C183.457 122.557 182.745 122.248 181.791 122.248C181.145 122.248 180.612 122.395 180.191 122.688C179.775 122.976 179.463 123.379 179.255 123.896C179.052 124.408 178.951 125 178.951 125.672C178.951 126.712 179.191 127.547 179.671 128.176C180.151 128.8 180.857 129.112 181.791 129.112ZM190.955 130.216C190.438 130.216 189.985 130.136 189.595 129.976C189.211 129.816 188.883 129.6 188.611 129.328C188.345 129.056 188.129 128.747 187.963 128.4C187.798 128.048 187.678 127.677 187.603 127.288C187.529 126.893 187.491 126.501 187.491 126.112V121.36H188.675V125.768C188.675 126.243 188.721 126.683 188.811 127.088C188.902 127.493 189.046 127.848 189.243 128.152C189.446 128.451 189.705 128.683 190.019 128.848C190.339 129.013 190.726 129.096 191.179 129.096C191.595 129.096 191.961 129.024 192.275 128.88C192.595 128.736 192.862 128.531 193.075 128.264C193.294 127.992 193.459 127.664 193.571 127.28C193.683 126.891 193.739 126.453 193.739 125.968L194.571 126.152C194.571 127.037 194.417 127.781 194.107 128.384C193.798 128.987 193.371 129.443 192.827 129.752C192.283 130.061 191.659 130.216 190.955 130.216ZM193.859 130V127.872H193.739V121.36H194.915V130H193.859ZM197.311 130V118.24H198.487V130H197.311ZM204.494 130.24C203.635 130.24 202.902 130.045 202.294 129.656C201.686 129.267 201.219 128.728 200.894 128.04C200.568 127.352 200.406 126.563 200.406 125.672C200.406 124.765 200.571 123.971 200.902 123.288C201.232 122.605 201.702 122.075 202.31 121.696C202.923 121.312 203.651 121.12 204.494 121.12C205.358 121.12 206.094 121.315 206.702 121.704C207.315 122.088 207.782 122.624 208.102 123.312C208.427 123.995 208.59 124.781 208.59 125.672C208.59 126.579 208.427 127.376 208.102 128.064C207.776 128.747 207.307 129.28 206.694 129.664C206.08 130.048 205.347 130.24 204.494 130.24ZM204.494 129.112C205.454 129.112 206.168 128.795 206.638 128.16C207.107 127.52 207.342 126.691 207.342 125.672C207.342 124.627 207.104 123.795 206.63 123.176C206.16 122.557 205.448 122.248 204.494 122.248C203.848 122.248 203.315 122.395 202.894 122.688C202.478 122.976 202.166 123.379 201.958 123.896C201.755 124.408 201.654 125 201.654 125.672C201.654 126.712 201.894 127.547 202.374 128.176C202.854 128.8 203.56 129.112 204.494 129.112ZM210.514 119.72V118.4H211.69V119.72H210.514ZM210.514 130V121.36H211.69V130H210.514ZM214.089 130V121.36H215.145V123.44L214.937 123.168C215.033 122.912 215.158 122.677 215.313 122.464C215.467 122.245 215.635 122.067 215.817 121.928C216.041 121.731 216.302 121.581 216.601 121.48C216.899 121.373 217.201 121.312 217.505 121.296C217.809 121.275 218.086 121.296 218.337 121.36V122.464C218.022 122.384 217.678 122.365 217.305 122.408C216.931 122.451 216.587 122.6 216.273 122.856C215.985 123.08 215.769 123.349 215.625 123.664C215.481 123.973 215.385 124.304 215.337 124.656C215.289 125.003 215.265 125.347 215.265 125.688V130H214.089ZM225.53 130.24C224.879 130.24 224.332 130.123 223.89 129.888C223.452 129.653 223.124 129.341 222.906 128.952C222.687 128.563 222.578 128.139 222.578 127.68C222.578 127.211 222.671 126.811 222.858 126.48C223.05 126.144 223.308 125.869 223.634 125.656C223.964 125.443 224.346 125.28 224.778 125.168C225.215 125.061 225.698 124.968 226.226 124.888C226.759 124.803 227.279 124.731 227.786 124.672C228.298 124.608 228.746 124.547 229.13 124.488L228.714 124.744C228.73 123.891 228.564 123.259 228.218 122.848C227.871 122.437 227.268 122.232 226.41 122.232C225.818 122.232 225.316 122.365 224.906 122.632C224.5 122.899 224.215 123.32 224.049 123.896L222.906 123.56C223.103 122.787 223.5 122.187 224.098 121.76C224.695 121.333 225.471 121.12 226.426 121.12C227.215 121.12 227.884 121.269 228.434 121.568C228.988 121.861 229.38 122.288 229.61 122.848C229.716 123.099 229.786 123.379 229.818 123.688C229.85 123.997 229.866 124.312 229.866 124.632V130H228.818V127.832L229.122 127.96C228.828 128.701 228.372 129.267 227.754 129.656C227.135 130.045 226.394 130.24 225.53 130.24ZM225.666 129.224C226.215 129.224 226.695 129.125 227.106 128.928C227.516 128.731 227.847 128.461 228.098 128.12C228.348 127.773 228.511 127.384 228.586 126.952C228.65 126.675 228.684 126.371 228.69 126.04C228.695 125.704 228.698 125.453 228.698 125.288L229.146 125.52C228.746 125.573 228.311 125.627 227.842 125.68C227.378 125.733 226.919 125.795 226.466 125.864C226.018 125.933 225.612 126.016 225.25 126.112C225.004 126.181 224.767 126.28 224.538 126.408C224.308 126.531 224.119 126.696 223.97 126.904C223.826 127.112 223.754 127.371 223.754 127.68C223.754 127.931 223.815 128.173 223.938 128.408C224.066 128.643 224.268 128.837 224.546 128.992C224.828 129.147 225.202 129.224 225.666 129.224ZM238.188 130V125.592C238.188 125.112 238.143 124.672 238.052 124.272C237.961 123.867 237.815 123.515 237.612 123.216C237.415 122.912 237.156 122.677 236.836 122.512C236.521 122.347 236.137 122.264 235.684 122.264C235.268 122.264 234.9 122.336 234.58 122.48C234.265 122.624 233.999 122.832 233.78 123.104C233.567 123.371 233.404 123.696 233.292 124.08C233.18 124.464 233.124 124.901 233.124 125.392L232.292 125.208C232.292 124.323 232.447 123.579 232.756 122.976C233.065 122.373 233.492 121.917 234.036 121.608C234.58 121.299 235.204 121.144 235.908 121.144C236.425 121.144 236.876 121.224 237.26 121.384C237.649 121.544 237.977 121.76 238.244 122.032C238.516 122.304 238.735 122.616 238.9 122.968C239.065 123.315 239.185 123.685 239.26 124.08C239.335 124.469 239.372 124.859 239.372 125.248V130H238.188ZM231.94 130V121.36H233.004V123.488H233.124V130H231.94ZM247.688 130V125.592C247.688 125.112 247.643 124.672 247.552 124.272C247.461 123.867 247.315 123.515 247.112 123.216C246.915 122.912 246.656 122.677 246.336 122.512C246.021 122.347 245.637 122.264 245.184 122.264C244.768 122.264 244.4 122.336 244.08 122.48C243.765 122.624 243.499 122.832 243.28 123.104C243.067 123.371 242.904 123.696 242.792 124.08C242.68 124.464 242.624 124.901 242.624 125.392L241.792 125.208C241.792 124.323 241.947 123.579 242.256 122.976C242.565 122.373 242.992 121.917 243.536 121.608C244.08 121.299 244.704 121.144 245.408 121.144C245.925 121.144 246.376 121.224 246.76 121.384C247.149 121.544 247.477 121.76 247.744 122.032C248.016 122.304 248.235 122.616 248.4 122.968C248.565 123.315 248.685 123.685 248.76 124.08C248.835 124.469 248.872 124.859 248.872 125.248V130H247.688ZM241.44 130V121.36H242.504V123.488H242.624V130H241.44ZM254.252 130.216C253.735 130.216 253.281 130.136 252.892 129.976C252.508 129.816 252.18 129.6 251.908 129.328C251.641 129.056 251.425 128.747 251.26 128.4C251.095 128.048 250.975 127.677 250.9 127.288C250.825 126.893 250.788 126.501 250.788 126.112V121.36H251.972V125.768C251.972 126.243 252.017 126.683 252.108 127.088C252.199 127.493 252.343 127.848 252.54 128.152C252.743 128.451 253.001 128.683 253.316 128.848C253.636 129.013 254.023 129.096 254.476 129.096C254.892 129.096 255.257 129.024 255.572 128.88C255.892 128.736 256.159 128.531 256.372 128.264C256.591 127.992 256.756 127.664 256.868 127.28C256.98 126.891 257.036 126.453 257.036 125.968L257.868 126.152C257.868 127.037 257.713 127.781 257.404 128.384C257.095 128.987 256.668 129.443 256.124 129.752C255.58 130.061 254.956 130.216 254.252 130.216ZM257.156 130V127.872H257.036V121.36H258.212V130H257.156ZM260.608 130V118.24H261.784V130H260.608ZM267.839 130.24C266.996 130.24 266.265 130.053 265.647 129.68C265.033 129.307 264.556 128.781 264.215 128.104C263.873 127.427 263.703 126.632 263.703 125.72C263.703 124.776 263.871 123.96 264.207 123.272C264.543 122.584 265.015 122.053 265.623 121.68C266.236 121.307 266.959 121.12 267.791 121.12C268.644 121.12 269.372 121.317 269.975 121.712C270.577 122.101 271.033 122.661 271.343 123.392C271.652 124.123 271.793 124.995 271.767 126.008H270.567V125.592C270.545 124.472 270.303 123.627 269.839 123.056C269.38 122.485 268.708 122.2 267.823 122.2C266.895 122.2 266.183 122.501 265.687 123.104C265.196 123.707 264.951 124.565 264.951 125.68C264.951 126.768 265.196 127.613 265.687 128.216C266.183 128.813 266.884 129.112 267.791 129.112C268.409 129.112 268.948 128.971 269.407 128.688C269.871 128.4 270.236 127.987 270.503 127.448L271.599 127.872C271.257 128.624 270.753 129.208 270.087 129.624C269.425 130.035 268.676 130.24 267.839 130.24ZM264.535 126.008V125.024H271.135V126.008H264.535ZM273.542 130V121.36H274.598V123.44L274.39 123.168C274.486 122.912 274.611 122.677 274.766 122.464C274.921 122.245 275.089 122.067 275.27 121.928C275.494 121.731 275.755 121.581 276.054 121.48C276.353 121.373 276.654 121.312 276.958 121.296C277.262 121.275 277.539 121.296 277.79 121.36V122.464C277.475 122.384 277.131 122.365 276.758 122.408C276.385 122.451 276.041 122.6 275.726 122.856C275.438 123.08 275.222 123.349 275.078 123.664C274.934 123.973 274.838 124.304 274.79 124.656C274.742 125.003 274.718 125.347 274.718 125.688V130H273.542ZM286.095 130.24C285.225 130.24 284.489 130.045 283.887 129.656C283.284 129.267 282.825 128.731 282.511 128.048C282.201 127.36 282.041 126.571 282.031 125.68C282.041 124.773 282.207 123.979 282.527 123.296C282.847 122.608 283.308 122.075 283.911 121.696C284.513 121.312 285.244 121.12 286.103 121.12C286.977 121.12 287.737 121.333 288.383 121.76C289.033 122.187 289.479 122.771 289.719 123.512L288.567 123.88C288.364 123.363 288.041 122.963 287.599 122.68C287.161 122.392 286.66 122.248 286.095 122.248C285.46 122.248 284.935 122.395 284.519 122.688C284.103 122.976 283.793 123.379 283.591 123.896C283.388 124.413 283.284 125.008 283.279 125.68C283.289 126.715 283.529 127.547 283.999 128.176C284.468 128.8 285.167 129.112 286.095 129.112C286.681 129.112 287.18 128.979 287.591 128.712C288.007 128.44 288.321 128.045 288.535 127.528L289.719 127.88C289.399 128.648 288.929 129.235 288.311 129.64C287.692 130.04 286.953 130.24 286.095 130.24ZM294.792 130.24C293.949 130.24 293.218 130.053 292.6 129.68C291.986 129.307 291.509 128.781 291.168 128.104C290.826 127.427 290.656 126.632 290.656 125.72C290.656 124.776 290.824 123.96 291.16 123.272C291.496 122.584 291.968 122.053 292.576 121.68C293.189 121.307 293.912 121.12 294.744 121.12C295.597 121.12 296.325 121.317 296.928 121.712C297.53 122.101 297.986 122.661 298.296 123.392C298.605 124.123 298.746 124.995 298.72 126.008H297.52V125.592C297.498 124.472 297.256 123.627 296.792 123.056C296.333 122.485 295.661 122.2 294.776 122.2C293.848 122.2 293.136 122.501 292.64 123.104C292.149 123.707 291.904 124.565 291.904 125.68C291.904 126.768 292.149 127.613 292.64 128.216C293.136 128.813 293.837 129.112 294.744 129.112C295.362 129.112 295.901 128.971 296.36 128.688C296.824 128.4 297.189 127.987 297.456 127.448L298.552 127.872C298.21 128.624 297.706 129.208 297.04 129.624C296.378 130.035 295.629 130.24 294.792 130.24ZM291.488 126.008V125.024H298.088V126.008H291.488ZM138.375 152.24C137.58 152.24 136.908 152.04 136.359 151.64C135.81 151.235 135.394 150.688 135.111 150C134.828 149.307 134.687 148.531 134.687 147.672C134.687 146.797 134.828 146.019 135.111 145.336C135.399 144.648 135.82 144.107 136.375 143.712C136.93 143.317 137.612 143.12 138.423 143.12C139.212 143.12 139.89 143.32 140.455 143.72C141.02 144.12 141.452 144.664 141.751 145.352C142.055 146.04 142.207 146.813 142.207 147.672C142.207 148.536 142.055 149.312 141.751 150C141.447 150.688 141.01 151.235 140.439 151.64C139.868 152.04 139.18 152.24 138.375 152.24ZM134.487 155.84V143.36H135.543V149.864H135.671V155.84H134.487ZM138.255 151.144C138.858 151.144 139.359 150.992 139.759 150.688C140.159 150.384 140.458 149.971 140.655 149.448C140.858 148.92 140.959 148.328 140.959 147.672C140.959 147.021 140.86 146.435 140.663 145.912C140.466 145.389 140.164 144.976 139.759 144.672C139.359 144.368 138.85 144.216 138.231 144.216C137.628 144.216 137.127 144.363 136.727 144.656C136.332 144.949 136.036 145.357 135.839 145.88C135.642 146.397 135.543 146.995 135.543 147.672C135.543 148.339 135.642 148.936 135.839 149.464C136.036 149.987 136.335 150.397 136.735 150.696C137.135 150.995 137.642 151.144 138.255 151.144ZM143.964 152V143.36H145.02V145.44L144.812 145.168C144.908 144.912 145.033 144.677 145.188 144.464C145.342 144.245 145.51 144.067 145.692 143.928C145.916 143.731 146.177 143.581 146.476 143.48C146.774 143.373 147.076 143.312 147.38 143.296C147.684 143.275 147.961 143.296 148.212 143.36V144.464C147.897 144.384 147.553 144.365 147.18 144.408C146.806 144.451 146.462 144.6 146.148 144.856C145.86 145.08 145.644 145.349 145.5 145.664C145.356 145.973 145.26 146.304 145.212 146.656C145.164 147.003 145.14 147.347 145.14 147.688V152H143.964ZM153.181 152.24C152.322 152.24 151.589 152.045 150.981 151.656C150.373 151.267 149.906 150.728 149.581 150.04C149.256 149.352 149.093 148.563 149.093 147.672C149.093 146.765 149.258 145.971 149.589 145.288C149.92 144.605 150.389 144.075 150.997 143.696C151.61 143.312 152.338 143.12 153.181 143.12C154.045 143.12 154.781 143.315 155.389 143.704C156.002 144.088 156.469 144.624 156.789 145.312C157.114 145.995 157.277 146.781 157.277 147.672C157.277 148.579 157.114 149.376 156.789 150.064C156.464 150.747 155.994 151.28 155.381 151.664C154.768 152.048 154.034 152.24 153.181 152.24ZM153.181 151.112C154.141 151.112 154.856 150.795 155.325 150.16C155.794 149.52 156.029 148.691 156.029 147.672C156.029 146.627 155.792 145.795 155.317 145.176C154.848 144.557 154.136 144.248 153.181 144.248C152.536 144.248 152.002 144.395 151.581 144.688C151.165 144.976 150.853 145.379 150.645 145.896C150.442 146.408 150.341 147 150.341 147.672C150.341 148.712 150.581 149.547 151.061 150.176C151.541 150.8 152.248 151.112 153.181 151.112ZM162.626 152.24C161.757 152.24 161.021 152.045 160.418 151.656C159.815 151.267 159.357 150.731 159.042 150.048C158.733 149.36 158.573 148.571 158.562 147.68C158.573 146.773 158.738 145.979 159.058 145.296C159.378 144.608 159.839 144.075 160.442 143.696C161.045 143.312 161.775 143.12 162.634 143.12C163.509 143.12 164.269 143.333 164.914 143.76C165.565 144.187 166.01 144.771 166.25 145.512L165.098 145.88C164.895 145.363 164.573 144.963 164.13 144.68C163.693 144.392 163.191 144.248 162.626 144.248C161.991 144.248 161.466 144.395 161.05 144.688C160.634 144.976 160.325 145.379 160.122 145.896C159.919 146.413 159.815 147.008 159.81 147.68C159.821 148.715 160.061 149.547 160.53 150.176C160.999 150.8 161.698 151.112 162.626 151.112C163.213 151.112 163.711 150.979 164.122 150.712C164.538 150.44 164.853 150.045 165.066 149.528L166.25 149.88C165.93 150.648 165.461 151.235 164.842 151.64C164.223 152.04 163.485 152.24 162.626 152.24ZM171.323 152.24C170.48 152.24 169.75 152.053 169.131 151.68C168.518 151.307 168.04 150.781 167.699 150.104C167.358 149.427 167.187 148.632 167.187 147.72C167.187 146.776 167.355 145.96 167.691 145.272C168.027 144.584 168.499 144.053 169.107 143.68C169.72 143.307 170.443 143.12 171.275 143.12C172.128 143.12 172.856 143.317 173.459 143.712C174.062 144.101 174.518 144.661 174.827 145.392C175.136 146.123 175.278 146.995 175.251 148.008H174.051V147.592C174.03 146.472 173.787 145.627 173.323 145.056C172.864 144.485 172.192 144.2 171.307 144.2C170.379 144.2 169.667 144.501 169.171 145.104C168.68 145.707 168.435 146.565 168.435 147.68C168.435 148.768 168.68 149.613 169.171 150.216C169.667 150.813 170.368 151.112 171.275 151.112C171.894 151.112 172.432 150.971 172.891 150.688C173.355 150.4 173.72 149.987 173.987 149.448L175.083 149.872C174.742 150.624 174.238 151.208 173.571 151.624C172.91 152.035 172.16 152.24 171.323 152.24ZM168.019 148.008V147.024H174.619V148.008H168.019ZM180.25 152.232C179.237 152.232 178.402 152.013 177.746 151.576C177.096 151.139 176.696 150.531 176.546 149.752L177.746 149.552C177.874 150.043 178.165 150.435 178.618 150.728C179.077 151.016 179.642 151.16 180.314 151.16C180.97 151.16 181.488 151.024 181.866 150.752C182.245 150.475 182.434 150.099 182.434 149.624C182.434 149.357 182.373 149.141 182.25 148.976C182.133 148.805 181.89 148.648 181.522 148.504C181.154 148.36 180.605 148.189 179.874 147.992C179.09 147.779 178.477 147.565 178.034 147.352C177.592 147.139 177.277 146.893 177.09 146.616C176.904 146.333 176.81 145.989 176.81 145.584C176.81 145.093 176.949 144.664 177.226 144.296C177.504 143.923 177.888 143.635 178.378 143.432C178.869 143.224 179.44 143.12 180.09 143.12C180.741 143.12 181.322 143.227 181.834 143.44C182.352 143.648 182.768 143.941 183.082 144.32C183.397 144.699 183.584 145.139 183.642 145.64L182.442 145.856C182.362 145.349 182.109 144.949 181.682 144.656C181.261 144.357 180.725 144.203 180.074 144.192C179.461 144.176 178.962 144.293 178.578 144.544C178.194 144.789 178.002 145.117 178.002 145.528C178.002 145.757 178.072 145.955 178.21 146.12C178.349 146.28 178.6 146.432 178.962 146.576C179.33 146.72 179.853 146.877 180.53 147.048C181.325 147.251 181.949 147.464 182.402 147.688C182.856 147.912 183.178 148.176 183.37 148.48C183.562 148.784 183.658 149.16 183.658 149.608C183.658 150.424 183.354 151.067 182.746 151.536C182.144 152 181.312 152.232 180.25 152.232ZM188.657 152.232C187.643 152.232 186.809 152.013 186.153 151.576C185.502 151.139 185.102 150.531 184.953 149.752L186.153 149.552C186.281 150.043 186.571 150.435 187.025 150.728C187.483 151.016 188.049 151.16 188.72 151.16C189.377 151.16 189.894 151.024 190.273 150.752C190.651 150.475 190.841 150.099 190.841 149.624C190.841 149.357 190.779 149.141 190.657 148.976C190.539 148.805 190.297 148.648 189.929 148.504C189.561 148.36 189.011 148.189 188.281 147.992C187.497 147.779 186.883 147.565 186.441 147.352C185.998 147.139 185.683 146.893 185.497 146.616C185.31 146.333 185.217 145.989 185.217 145.584C185.217 145.093 185.355 144.664 185.633 144.296C185.91 143.923 186.294 143.635 186.785 143.432C187.275 143.224 187.846 143.12 188.497 143.12C189.147 143.12 189.729 143.227 190.241 143.44C190.758 143.648 191.174 143.941 191.489 144.32C191.803 144.699 191.99 145.139 192.049 145.64L190.849 145.856C190.769 145.349 190.515 144.949 190.089 144.656C189.667 144.357 189.131 144.203 188.481 144.192C187.867 144.176 187.369 144.293 186.985 144.544C186.601 144.789 186.409 145.117 186.409 145.528C186.409 145.757 186.478 145.955 186.617 146.12C186.755 146.28 187.006 146.432 187.369 146.576C187.737 146.72 188.259 146.877 188.937 147.048C189.731 147.251 190.355 147.464 190.809 147.688C191.262 147.912 191.585 148.176 191.777 148.48C191.969 148.784 192.065 149.16 192.065 149.608C192.065 150.424 191.761 151.067 191.153 151.536C190.55 152 189.718 152.232 188.657 152.232ZM197.143 152.216C196.625 152.216 196.172 152.136 195.783 151.976C195.399 151.816 195.071 151.6 194.799 151.328C194.532 151.056 194.316 150.747 194.151 150.4C193.985 150.048 193.865 149.677 193.791 149.288C193.716 148.893 193.679 148.501 193.679 148.112V143.36H194.863V147.768C194.863 148.243 194.908 148.683 194.999 149.088C195.089 149.493 195.233 149.848 195.431 150.152C195.633 150.451 195.892 150.683 196.207 150.848C196.527 151.013 196.913 151.096 197.367 151.096C197.783 151.096 198.148 151.024 198.463 150.88C198.783 150.736 199.049 150.531 199.263 150.264C199.481 149.992 199.647 149.664 199.759 149.28C199.871 148.891 199.927 148.453 199.927 147.968L200.759 148.152C200.759 149.037 200.604 149.781 200.295 150.384C199.985 150.987 199.559 151.443 199.015 151.752C198.471 152.061 197.847 152.216 197.143 152.216ZM200.047 152V149.872H199.927V143.36H201.103V152H200.047ZM206.563 152.232C205.549 152.232 204.715 152.013 204.059 151.576C203.408 151.139 203.008 150.531 202.859 149.752L204.059 149.552C204.187 150.043 204.477 150.435 204.931 150.728C205.389 151.016 205.955 151.16 206.627 151.16C207.283 151.16 207.8 151.024 208.179 150.752C208.557 150.475 208.747 150.099 208.747 149.624C208.747 149.357 208.685 149.141 208.563 148.976C208.445 148.805 208.203 148.648 207.835 148.504C207.467 148.36 206.917 148.189 206.187 147.992C205.403 147.779 204.789 147.565 204.347 147.352C203.904 147.139 203.589 146.893 203.403 146.616C203.216 146.333 203.123 145.989 203.123 145.584C203.123 145.093 203.261 144.664 203.539 144.296C203.816 143.923 204.2 143.635 204.691 143.432C205.181 143.224 205.752 143.12 206.403 143.12C207.053 143.12 207.635 143.227 208.147 143.44C208.664 143.648 209.08 143.941 209.395 144.32C209.709 144.699 209.896 145.139 209.955 145.64L208.755 145.856C208.675 145.349 208.421 144.949 207.995 144.656C207.573 144.357 207.037 144.203 206.387 144.192C205.773 144.176 205.275 144.293 204.891 144.544C204.507 144.789 204.315 145.117 204.315 145.528C204.315 145.757 204.384 145.955 204.523 146.12C204.661 146.28 204.912 146.432 205.275 146.576C205.643 146.72 206.165 146.877 206.843 147.048C207.637 147.251 208.261 147.464 208.715 147.688C209.168 147.912 209.491 148.176 209.683 148.48C209.875 148.784 209.971 149.16 209.971 149.608C209.971 150.424 209.667 151.067 209.059 151.536C208.456 152 207.624 152.232 206.563 152.232Z" fill="black"/>
</g>
<g id="Frame 374">
<g id="Frame 373">
<rect x="20" y="177" width="144" height="35" rx="8" fill="#333333"/>
<path id="Non" d="M79.48 200V189.92H80.74L85.997 197.795V189.92H87.257V200H85.997L80.74 192.118V200H79.48ZM92.4344 200.21C91.683 200.21 91.0344 200.04 90.4884 199.699C89.947 199.358 89.5294 198.887 89.2354 198.285C88.9414 197.683 88.7944 196.992 88.7944 196.213C88.7944 195.42 88.9437 194.724 89.2424 194.127C89.541 193.53 89.9634 193.065 90.5094 192.734C91.0554 192.398 91.697 192.23 92.4344 192.23C93.1904 192.23 93.8414 192.4 94.3874 192.741C94.9334 193.077 95.351 193.546 95.6404 194.148C95.9344 194.745 96.0814 195.434 96.0814 196.213C96.0814 197.002 95.9344 197.697 95.6404 198.299C95.3464 198.896 94.9264 199.365 94.3804 199.706C93.8344 200.042 93.1857 200.21 92.4344 200.21ZM92.4344 199.027C93.2184 199.027 93.8017 198.766 94.1844 198.243C94.567 197.72 94.7584 197.044 94.7584 196.213C94.7584 195.359 94.5647 194.68 94.1774 194.176C93.79 193.667 93.209 193.413 92.4344 193.413C91.907 193.413 91.473 193.532 91.1324 193.77C90.7917 194.008 90.5374 194.337 90.3694 194.757C90.2014 195.177 90.1174 195.662 90.1174 196.213C90.1174 197.062 90.3134 197.744 90.7054 198.257C91.0974 198.77 91.6737 199.027 92.4344 199.027ZM103.006 200V196.213C103.006 195.854 102.973 195.508 102.908 195.177C102.847 194.846 102.737 194.549 102.579 194.288C102.425 194.022 102.215 193.812 101.949 193.658C101.687 193.504 101.356 193.427 100.955 193.427C100.642 193.427 100.357 193.481 100.101 193.588C99.8486 193.691 99.6316 193.849 99.4496 194.064C99.2676 194.279 99.1252 194.549 99.0226 194.876C98.9246 195.198 98.8756 195.578 98.8756 196.017L98.0566 195.765C98.0566 195.032 98.1872 194.405 98.4486 193.882C98.7146 193.355 99.0856 192.951 99.5616 192.671C100.042 192.386 100.607 192.244 101.256 192.244C101.746 192.244 102.163 192.321 102.509 192.475C102.854 192.629 103.141 192.834 103.37 193.091C103.598 193.343 103.778 193.628 103.909 193.945C104.039 194.258 104.13 194.577 104.182 194.904C104.238 195.226 104.266 195.532 104.266 195.821V200H103.006ZM97.6156 200V192.44H98.7356V194.463H98.8756V200H97.6156Z" fill="white"/>
</g>
<g id="Frame 9">
<rect x="180" y="177" width="144" height="35" rx="8" fill="#D6364E"/>
<path id="Oui" d="M245.624 200.21C244.621 200.21 243.769 199.988 243.069 199.545C242.369 199.102 241.835 198.486 241.466 197.697C241.102 196.908 240.92 195.996 240.92 194.96C240.92 193.924 241.102 193.012 241.466 192.223C241.835 191.434 242.369 190.818 243.069 190.375C243.769 189.932 244.621 189.71 245.624 189.71C246.632 189.71 247.486 189.932 248.186 190.375C248.886 190.818 249.418 191.434 249.782 192.223C250.146 193.012 250.328 193.924 250.328 194.96C250.328 195.996 250.146 196.908 249.782 197.697C249.418 198.486 248.886 199.102 248.186 199.545C247.486 199.988 246.632 200.21 245.624 200.21ZM245.624 199.02C246.375 199.025 247.001 198.857 247.5 198.516C248.004 198.171 248.38 197.692 248.627 197.081C248.879 196.47 249.005 195.763 249.005 194.96C249.005 194.153 248.879 193.446 248.627 192.839C248.38 192.232 248.004 191.759 247.5 191.418C247.001 191.077 246.375 190.905 245.624 190.9C244.873 190.895 244.247 191.063 243.748 191.404C243.253 191.745 242.88 192.221 242.628 192.832C242.376 193.443 242.248 194.153 242.243 194.96C242.238 195.763 242.362 196.467 242.614 197.074C242.866 197.681 243.242 198.157 243.741 198.502C244.245 198.843 244.873 199.015 245.624 199.02ZM254.604 200.196C254.119 200.196 253.701 200.119 253.351 199.965C253.006 199.811 252.719 199.606 252.49 199.349C252.261 199.092 252.082 198.808 251.951 198.495C251.82 198.182 251.727 197.863 251.671 197.536C251.62 197.209 251.594 196.904 251.594 196.619V192.44H252.854V196.227C252.854 196.582 252.887 196.925 252.952 197.256C253.017 197.587 253.127 197.886 253.281 198.152C253.44 198.418 253.65 198.628 253.911 198.782C254.177 198.936 254.508 199.013 254.905 199.013C255.218 199.013 255.502 198.959 255.759 198.852C256.016 198.745 256.235 198.586 256.417 198.376C256.599 198.161 256.739 197.891 256.837 197.564C256.935 197.237 256.984 196.857 256.984 196.423L257.803 196.675C257.803 197.403 257.67 198.031 257.404 198.558C257.143 199.085 256.772 199.491 256.291 199.776C255.815 200.056 255.253 200.196 254.604 200.196ZM257.124 200V197.977H256.984V192.44H258.237V200H257.124ZM260.337 191.103V189.815H261.583V191.103H260.337ZM260.337 200V192.44H261.583V200H260.337Z" fill="white"/>
</g>
</g>
</g>
</svg>
