<svg width="285" height="153" viewBox="0 0 285 153" fill="none" xmlns="http://www.w3.org/2000/svg">
<g id="Frame 674">
<rect width="285" height="153" rx="8" fill="white"/>
<g id="icon-park-solid:success">
<g id="Mask group">
<mask id="mask0_815_9594" style="mask-type:luminance" maskUnits="userSpaceOnUse" x="122" y="23" width="41" height="42">
<g id="Group">
<g id="Group_2">
<path id="Vector" d="M142.5 24L147.753 27.832L154.256 27.82L156.253 34.008L161.521 37.82L159.5 44L161.521 50.18L156.253 53.992L154.256 60.18L147.753 60.168L142.5 64L137.247 60.168L130.744 60.18L128.747 53.992L123.479 50.18L125.5 44L123.479 37.82L128.747 34.008L130.744 27.82L137.247 27.832L142.5 24Z" fill="white" stroke="white" stroke-width="2" stroke-linecap="round" stroke-linejoin="round"/>
<path id="Vector_2" d="M135.5 44L140.5 49L150.5 39" stroke="black" stroke-width="2" stroke-linecap="round" stroke-linejoin="round"/>
</g>
</g>
</mask>
<g mask="url(#mask0_815_9594)">
<path id="Vector_3" d="M118.5 20H166.5V68H118.5V20Z" fill="#4CC266"/>
</g>
</g>
</g>
<path id="Vous venez d&#226;&#128;&#153;accepter la mission #78214" d="M31.8408 91L28.3688 80.92H29.4398L32.5128 89.831L35.6068 80.92H36.6778L33.2058 91H31.8408ZM40.0511 91.21C39.2997 91.21 38.6581 91.0397 38.1261 90.699C37.5941 90.3583 37.1857 89.887 36.9011 89.285C36.6164 88.683 36.4741 87.9923 36.4741 87.213C36.4741 86.4197 36.6187 85.7243 36.9081 85.127C37.1974 84.5297 37.6081 84.0653 38.1401 83.734C38.6767 83.398 39.3137 83.23 40.0511 83.23C40.8071 83.23 41.4511 83.4003 41.9831 83.741C42.5197 84.077 42.9281 84.546 43.2081 85.148C43.4927 85.7453 43.6351 86.4337 43.6351 87.213C43.6351 88.0063 43.4927 88.704 43.2081 89.306C42.9234 89.9033 42.5127 90.37 41.9761 90.706C41.4394 91.042 40.7977 91.21 40.0511 91.21ZM40.0511 90.223C40.8911 90.223 41.5164 89.9453 41.9271 89.39C42.3377 88.83 42.5431 88.1043 42.5431 87.213C42.5431 86.2983 42.3354 85.5703 41.9201 85.029C41.5094 84.4877 40.8864 84.217 40.0511 84.217C39.4864 84.217 39.0197 84.3453 38.6511 84.602C38.2871 84.854 38.0141 85.2063 37.8321 85.659C37.6547 86.107 37.5661 86.625 37.5661 87.213C37.5661 88.123 37.7761 88.8533 38.1961 89.404C38.6161 89.95 39.2344 90.223 40.0511 90.223ZM48.0702 91.189C47.6176 91.189 47.2209 91.119 46.8802 90.979C46.5442 90.839 46.2572 90.65 46.0192 90.412C45.7859 90.174 45.5969 89.9033 45.4522 89.6C45.3076 89.292 45.2026 88.9677 45.1372 88.627C45.0719 88.2817 45.0392 87.9387 45.0392 87.598V83.44H46.0752V87.297C46.0752 87.7123 46.1149 88.0973 46.1942 88.452C46.2736 88.8067 46.3996 89.117 46.5722 89.383C46.7496 89.6443 46.9759 89.8473 47.2512 89.992C47.5312 90.1367 47.8696 90.209 48.2662 90.209C48.6302 90.209 48.9499 90.146 49.2252 90.02C49.5052 89.894 49.7386 89.7143 49.9252 89.481C50.1166 89.243 50.2612 88.956 50.3592 88.62C50.4572 88.2793 50.5062 87.8967 50.5062 87.472L51.2342 87.633C51.2342 88.4077 51.0989 89.0587 50.8282 89.586C50.5576 90.1133 50.1842 90.5123 49.7082 90.783C49.2322 91.0537 48.6862 91.189 48.0702 91.189ZM50.6112 91V89.138H50.5062V83.44H51.5352V91H50.6112ZM56.3127 91.203C55.4261 91.203 54.6957 91.0117 54.1217 90.629C53.5524 90.2463 53.2024 89.7143 53.0717 89.033L54.1217 88.858C54.2337 89.2873 54.4881 89.6303 54.8847 89.887C55.2861 90.139 55.7807 90.265 56.3687 90.265C56.9427 90.265 57.3954 90.146 57.7267 89.908C58.0581 89.6653 58.2237 89.3363 58.2237 88.921C58.2237 88.6877 58.1701 88.4987 58.0627 88.354C57.9601 88.2047 57.7477 88.067 57.4257 87.941C57.1037 87.815 56.6231 87.6657 55.9837 87.493C55.2977 87.3063 54.7611 87.1197 54.3737 86.933C53.9864 86.7463 53.7111 86.5317 53.5477 86.289C53.3844 86.0417 53.3027 85.7407 53.3027 85.386C53.3027 84.9567 53.4241 84.581 53.6667 84.259C53.9094 83.9323 54.2454 83.6803 54.6747 83.503C55.1041 83.321 55.6034 83.23 56.1727 83.23C56.7421 83.23 57.2507 83.3233 57.6987 83.51C58.1514 83.692 58.5154 83.9487 58.7907 84.28C59.0661 84.6113 59.2294 84.9963 59.2807 85.435L58.2307 85.624C58.1607 85.1807 57.9391 84.8307 57.5657 84.574C57.1971 84.3127 56.7281 84.1773 56.1587 84.168C55.6221 84.154 55.1857 84.2567 54.8497 84.476C54.5137 84.6907 54.3457 84.9777 54.3457 85.337C54.3457 85.5377 54.4064 85.7103 54.5277 85.855C54.6491 85.995 54.8684 86.128 55.1857 86.254C55.5077 86.38 55.9651 86.5177 56.5577 86.667C57.2531 86.8443 57.7991 87.031 58.1957 87.227C58.5924 87.423 58.8747 87.654 59.0427 87.92C59.2107 88.186 59.2947 88.515 59.2947 88.907C59.2947 89.621 59.0287 90.1833 58.4967 90.594C57.9694 91 57.2414 91.203 56.3127 91.203ZM65.6939 91L62.9499 83.44H63.9929L66.2259 89.656L68.4449 83.44H69.5019L66.7579 91H65.6939ZM73.6849 91.21C72.9475 91.21 72.3082 91.0467 71.7669 90.72C71.2302 90.3933 70.8125 89.9337 70.5139 89.341C70.2152 88.7483 70.0659 88.053 70.0659 87.255C70.0659 86.429 70.2129 85.715 70.5069 85.113C70.8009 84.511 71.2139 84.0467 71.7459 83.72C72.2825 83.3933 72.9149 83.23 73.6429 83.23C74.3895 83.23 75.0265 83.4027 75.5539 83.748C76.0812 84.0887 76.4802 84.5787 76.7509 85.218C77.0215 85.8573 77.1452 86.6203 77.1219 87.507H76.0719V87.143C76.0532 86.163 75.8409 85.4233 75.4349 84.924C75.0335 84.4247 74.4455 84.175 73.6709 84.175C72.8589 84.175 72.2359 84.4387 71.8019 84.966C71.3725 85.4933 71.1579 86.2447 71.1579 87.22C71.1579 88.172 71.3725 88.9117 71.8019 89.439C72.2359 89.9617 72.8495 90.223 73.6429 90.223C74.1842 90.223 74.6555 90.0993 75.0569 89.852C75.4629 89.6 75.7825 89.2383 76.0159 88.767L76.9749 89.138C76.6762 89.796 76.2352 90.307 75.6519 90.671C75.0732 91.0303 74.4175 91.21 73.6849 91.21ZM70.7939 87.507V86.646H76.5689V87.507H70.7939ZM83.9302 91V87.143C83.9302 86.723 83.8906 86.338 83.8112 85.988C83.7319 85.6333 83.6036 85.3253 83.4262 85.064C83.2536 84.798 83.0272 84.5927 82.7472 84.448C82.4719 84.3033 82.1359 84.231 81.7392 84.231C81.3752 84.231 81.0532 84.294 80.7732 84.42C80.4979 84.546 80.2646 84.728 80.0732 84.966C79.8866 85.1993 79.7442 85.484 79.6462 85.82C79.5482 86.156 79.4992 86.5387 79.4992 86.968L78.7712 86.807C78.7712 86.0323 78.9066 85.3813 79.1772 84.854C79.4479 84.3267 79.8212 83.9277 80.2972 83.657C80.7732 83.3863 81.3192 83.251 81.9352 83.251C82.3879 83.251 82.7822 83.321 83.1182 83.461C83.4589 83.601 83.7459 83.79 83.9792 84.028C84.2172 84.266 84.4086 84.539 84.5532 84.847C84.6979 85.1503 84.8029 85.4747 84.8682 85.82C84.9336 86.1607 84.9662 86.5013 84.9662 86.842V91H83.9302ZM78.4632 91V83.44H79.3942V85.302H79.4992V91H78.4632ZM89.9407 91.21C89.2034 91.21 88.5641 91.0467 88.0227 90.72C87.4861 90.3933 87.0684 89.9337 86.7697 89.341C86.4711 88.7483 86.3217 88.053 86.3217 87.255C86.3217 86.429 86.4687 85.715 86.7627 85.113C87.0567 84.511 87.4697 84.0467 88.0017 83.72C88.5384 83.3933 89.1707 83.23 89.8987 83.23C90.6454 83.23 91.2824 83.4027 91.8097 83.748C92.3371 84.0887 92.7361 84.5787 93.0067 85.218C93.2774 85.8573 93.4011 86.6203 93.3777 87.507H92.3277V87.143C92.3091 86.163 92.0967 85.4233 91.6907 84.924C91.2894 84.4247 90.7014 84.175 89.9267 84.175C89.1147 84.175 88.4917 84.4387 88.0577 84.966C87.6284 85.4933 87.4137 86.2447 87.4137 87.22C87.4137 88.172 87.6284 88.9117 88.0577 89.439C88.4917 89.9617 89.1054 90.223 89.8987 90.223C90.4401 90.223 90.9114 90.0993 91.3127 89.852C91.7187 89.6 92.0384 89.2383 92.2717 88.767L93.2307 89.138C92.9321 89.796 92.4911 90.307 91.9077 90.671C91.3291 91.0303 90.6734 91.21 89.9407 91.21ZM87.0497 87.507V86.646H92.8247V87.507H87.0497ZM94.2312 91V90.783L99.1102 84.399H94.5952V83.44H100.804V83.678L95.9322 90.041H100.538V91H94.2312ZM108.077 91.21C107.372 91.21 106.77 91.035 106.271 90.685C105.772 90.3303 105.389 89.852 105.123 89.25C104.857 88.648 104.724 87.969 104.724 87.213C104.724 86.4617 104.855 85.785 105.116 85.183C105.382 84.581 105.762 84.105 106.257 83.755C106.752 83.405 107.344 83.23 108.035 83.23C108.744 83.23 109.342 83.4027 109.827 83.748C110.312 84.0933 110.679 84.567 110.926 85.169C111.178 85.7663 111.304 86.4477 111.304 87.213C111.304 87.9643 111.18 88.6433 110.933 89.25C110.686 89.852 110.322 90.3303 109.841 90.685C109.36 91.035 108.772 91.21 108.077 91.21ZM108.182 90.251C108.719 90.251 109.162 90.1203 109.512 89.859C109.862 89.5977 110.123 89.2383 110.296 88.781C110.469 88.319 110.555 87.7963 110.555 87.213C110.555 86.6203 110.469 86.0977 110.296 85.645C110.123 85.1877 109.862 84.8307 109.512 84.574C109.167 84.3173 108.73 84.189 108.203 84.189C107.662 84.189 107.214 84.322 106.859 84.588C106.504 84.854 106.241 85.2157 106.068 85.673C105.9 86.1303 105.816 86.6437 105.816 87.213C105.816 87.787 105.902 88.305 106.075 88.767C106.252 89.2243 106.516 89.586 106.866 89.852C107.216 90.118 107.655 90.251 108.182 90.251ZM110.555 91V85.309H110.443V80.92H111.479V91H110.555ZM116.642 91.21C115.905 91.21 115.265 91.0467 114.724 90.72C114.187 90.3933 113.77 89.9337 113.471 89.341C113.172 88.7483 113.023 88.053 113.023 87.255C113.023 86.429 113.17 85.715 113.464 85.113C113.758 84.511 114.171 84.0467 114.703 83.72C115.24 83.3933 115.872 83.23 116.6 83.23C117.347 83.23 117.984 83.4027 118.511 83.748C119.038 84.0887 119.437 84.5787 119.708 85.218C119.979 85.8573 120.102 86.6203 120.079 87.507H119.029V87.143C119.01 86.163 118.798 85.4233 118.392 84.924C117.991 84.4247 117.403 84.175 116.628 84.175C115.816 84.175 115.193 84.4387 114.759 84.966C114.33 85.4933 114.115 86.2447 114.115 87.22C114.115 88.172 114.33 88.9117 114.759 89.439C115.193 89.9617 115.807 90.223 116.6 90.223C117.141 90.223 117.613 90.0993 118.014 89.852C118.42 89.6 118.74 89.2383 118.973 88.767L119.932 89.138C119.633 89.796 119.192 90.307 118.609 90.671C118.03 91.0303 117.375 91.21 116.642 91.21ZM113.751 87.507V86.646H119.526V87.507H113.751ZM124.575 91V80.71H125.604V91H124.575ZM129.866 91.21C129.296 91.21 128.818 91.1073 128.431 90.902C128.048 90.6967 127.761 90.4237 127.57 90.083C127.378 89.7423 127.283 89.3713 127.283 88.97C127.283 88.5593 127.364 88.2093 127.528 87.92C127.696 87.626 127.922 87.3857 128.207 87.199C128.496 87.0123 128.83 86.87 129.208 86.772C129.59 86.6787 130.013 86.597 130.475 86.527C130.941 86.4523 131.396 86.3893 131.84 86.338C132.288 86.282 132.68 86.2283 133.016 86.177L132.652 86.401C132.666 85.6543 132.521 85.1013 132.218 84.742C131.914 84.3827 131.387 84.203 130.636 84.203C130.118 84.203 129.679 84.3197 129.32 84.553C128.965 84.7863 128.715 85.155 128.571 85.659L127.57 85.365C127.742 84.6883 128.09 84.1633 128.613 83.79C129.135 83.4167 129.814 83.23 130.65 83.23C131.34 83.23 131.926 83.3607 132.407 83.622C132.892 83.8787 133.235 84.252 133.436 84.742C133.529 84.9613 133.59 85.2063 133.618 85.477C133.646 85.7477 133.66 86.023 133.66 86.303V91H132.743V89.103L133.009 89.215C132.752 89.8637 132.353 90.3583 131.812 90.699C131.27 91.0397 130.622 91.21 129.866 91.21ZM129.985 90.321C130.465 90.321 130.885 90.2347 131.245 90.062C131.604 89.8893 131.893 89.6537 132.113 89.355C132.332 89.0517 132.474 88.711 132.54 88.333C132.596 88.0903 132.626 87.8243 132.631 87.535C132.635 87.241 132.638 87.0217 132.638 86.877L133.03 87.08C132.68 87.1267 132.299 87.1733 131.889 87.22C131.483 87.2667 131.081 87.3203 130.685 87.381C130.293 87.4417 129.938 87.514 129.621 87.598C129.406 87.6587 129.198 87.745 128.998 87.857C128.797 87.9643 128.631 88.109 128.501 88.291C128.375 88.473 128.312 88.6993 128.312 88.97C128.312 89.1893 128.365 89.4017 128.473 89.607C128.585 89.8123 128.762 89.9827 129.005 90.118C129.252 90.2533 129.579 90.321 129.985 90.321ZM140.942 91V87.143C140.942 86.723 140.902 86.338 140.823 85.988C140.744 85.6333 140.615 85.3253 140.438 85.064C140.265 84.798 140.039 84.5927 139.759 84.448C139.484 84.3033 139.148 84.231 138.751 84.231C138.387 84.231 138.065 84.294 137.785 84.42C137.51 84.546 137.276 84.728 137.085 84.966C136.898 85.1993 136.756 85.484 136.658 85.82C136.56 86.156 136.511 86.5387 136.511 86.968L135.783 86.807C135.783 86.0323 135.918 85.3813 136.189 84.854C136.46 84.3267 136.833 83.9277 137.309 83.657C137.785 83.3863 138.331 83.251 138.947 83.251C139.4 83.251 139.794 83.321 140.13 83.461C140.471 83.601 140.758 83.79 140.991 84.028C141.229 84.266 141.42 84.539 141.565 84.847C141.71 85.1503 141.815 85.4747 141.88 85.82C141.945 86.1607 141.978 86.5013 141.978 86.842V91H140.942ZM135.475 91V83.44H136.406V85.302H136.511V91H135.475ZM146.889 91.21C146.129 91.21 145.485 91.0397 144.957 90.699C144.43 90.3583 144.029 89.8893 143.753 89.292C143.483 88.69 143.343 87.9993 143.333 87.22C143.343 86.4267 143.487 85.7313 143.767 85.134C144.047 84.532 144.451 84.0653 144.978 83.734C145.506 83.398 146.145 83.23 146.896 83.23C147.662 83.23 148.327 83.4167 148.891 83.79C149.461 84.1633 149.85 84.6743 150.06 85.323L149.052 85.645C148.875 85.1923 148.593 84.8423 148.205 84.595C147.823 84.343 147.384 84.217 146.889 84.217C146.334 84.217 145.874 84.3453 145.51 84.602C145.146 84.854 144.876 85.2063 144.698 85.659C144.521 86.1117 144.43 86.632 144.425 87.22C144.435 88.1253 144.645 88.8533 145.055 89.404C145.466 89.95 146.077 90.223 146.889 90.223C147.403 90.223 147.839 90.1063 148.198 89.873C148.562 89.635 148.838 89.2897 149.024 88.837L150.06 89.145C149.78 89.817 149.37 90.3303 148.828 90.685C148.287 91.035 147.641 91.21 146.889 91.21ZM154.499 91.21C153.762 91.21 153.123 91.0467 152.581 90.72C152.045 90.3933 151.627 89.9337 151.328 89.341C151.03 88.7483 150.88 88.053 150.88 87.255C150.88 86.429 151.027 85.715 151.321 85.113C151.615 84.511 152.028 84.0467 152.56 83.72C153.097 83.3933 153.729 83.23 154.457 83.23C155.204 83.23 155.841 83.4027 156.368 83.748C156.896 84.0887 157.295 84.5787 157.565 85.218C157.836 85.8573 157.96 86.6203 157.936 87.507H156.886V87.143C156.868 86.163 156.655 85.4233 156.249 84.924C155.848 84.4247 155.26 84.175 154.485 84.175C153.673 84.175 153.05 84.4387 152.616 84.966C152.187 85.4933 151.972 86.2447 151.972 87.22C151.972 88.172 152.187 88.9117 152.616 89.439C153.05 89.9617 153.664 90.223 154.457 90.223C154.999 90.223 155.47 90.0993 155.871 89.852C156.277 89.6 156.597 89.2383 156.83 88.767L157.789 89.138C157.491 89.796 157.05 90.307 156.466 90.671C155.888 91.0303 155.232 91.21 154.499 91.21ZM151.608 87.507V86.646H157.383V87.507H151.608ZM159.49 91V83.44H160.414V85.26L160.232 85.022C160.316 84.798 160.425 84.5927 160.561 84.406C160.696 84.2147 160.843 84.0583 161.002 83.937C161.198 83.7643 161.426 83.6337 161.688 83.545C161.949 83.4517 162.213 83.398 162.479 83.384C162.745 83.3653 162.987 83.384 163.207 83.44V84.406C162.931 84.336 162.63 84.3197 162.304 84.357C161.977 84.3943 161.676 84.525 161.401 84.749C161.149 84.945 160.96 85.1807 160.834 85.456C160.708 85.7267 160.624 86.016 160.582 86.324C160.54 86.6273 160.519 86.9283 160.519 87.227V91H159.49ZM170.228 91.189C169.776 91.189 169.379 91.119 169.038 90.979C168.702 90.839 168.415 90.65 168.177 90.412C167.944 90.174 167.755 89.9033 167.61 89.6C167.466 89.292 167.361 88.9677 167.295 88.627C167.23 88.2817 167.197 87.9387 167.197 87.598V83.44H168.233V87.297C168.233 87.7123 168.273 88.0973 168.352 88.452C168.432 88.8067 168.558 89.117 168.73 89.383C168.908 89.6443 169.134 89.8473 169.409 89.992C169.689 90.1367 170.028 90.209 170.424 90.209C170.788 90.209 171.108 90.146 171.383 90.02C171.663 89.894 171.897 89.7143 172.083 89.481C172.275 89.243 172.419 88.956 172.517 88.62C172.615 88.2793 172.664 87.8967 172.664 87.472L173.392 87.633C173.392 88.4077 173.257 89.0587 172.986 89.586C172.716 90.1133 172.342 90.5123 171.866 90.783C171.39 91.0537 170.844 91.189 170.228 91.189ZM172.769 91V89.138H172.664V83.44H173.693V91H172.769ZM181.11 91V87.143C181.11 86.723 181.07 86.338 180.991 85.988C180.912 85.6333 180.783 85.3253 180.606 85.064C180.433 84.798 180.207 84.5927 179.927 84.448C179.652 84.3033 179.316 84.231 178.919 84.231C178.555 84.231 178.233 84.294 177.953 84.42C177.678 84.546 177.444 84.728 177.253 84.966C177.066 85.1993 176.924 85.484 176.826 85.82C176.728 86.156 176.679 86.5387 176.679 86.968L175.951 86.807C175.951 86.0323 176.086 85.3813 176.357 84.854C176.628 84.3267 177.001 83.9277 177.477 83.657C177.953 83.3863 178.499 83.251 179.115 83.251C179.568 83.251 179.962 83.321 180.298 83.461C180.639 83.601 180.926 83.79 181.159 84.028C181.397 84.266 181.588 84.539 181.733 84.847C181.878 85.1503 181.983 85.4747 182.048 85.82C182.113 86.1607 182.146 86.5013 182.146 86.842V91H181.11ZM175.643 91V83.44H176.574V85.302H176.679V91H175.643ZM187.12 91.21C186.383 91.21 185.744 91.0467 185.202 90.72C184.666 90.3933 184.248 89.9337 183.949 89.341C183.651 88.7483 183.501 88.053 183.501 87.255C183.501 86.429 183.648 85.715 183.942 85.113C184.236 84.511 184.649 84.0467 185.181 83.72C185.718 83.3933 186.35 83.23 187.078 83.23C187.825 83.23 188.462 83.4027 188.989 83.748C189.517 84.0887 189.916 84.5787 190.186 85.218C190.457 85.8573 190.581 86.6203 190.557 87.507H189.507V87.143C189.489 86.163 189.276 85.4233 188.87 84.924C188.469 84.4247 187.881 84.175 187.106 84.175C186.294 84.175 185.671 84.4387 185.237 84.966C184.808 85.4933 184.593 86.2447 184.593 87.22C184.593 88.172 184.808 88.9117 185.237 89.439C185.671 89.9617 186.285 90.223 187.078 90.223C187.62 90.223 188.091 90.0993 188.492 89.852C188.898 89.6 189.218 89.2383 189.451 88.767L190.41 89.138C190.112 89.796 189.671 90.307 189.087 90.671C188.509 91.0303 187.853 91.21 187.12 91.21ZM184.229 87.507V86.646H190.004V87.507H184.229ZM198.071 91.21C197.319 91.21 196.678 91.0397 196.146 90.699C195.614 90.3583 195.205 89.887 194.921 89.285C194.636 88.683 194.494 87.9923 194.494 87.213C194.494 86.4197 194.638 85.7243 194.928 85.127C195.217 84.5297 195.628 84.0653 196.16 83.734C196.696 83.398 197.333 83.23 198.071 83.23C198.827 83.23 199.471 83.4003 200.003 83.741C200.539 84.077 200.948 84.546 201.228 85.148C201.512 85.7453 201.655 86.4337 201.655 87.213C201.655 88.0063 201.512 88.704 201.228 89.306C200.943 89.9033 200.532 90.37 199.996 90.706C199.459 91.042 198.817 91.21 198.071 91.21ZM198.071 90.223C198.911 90.223 199.536 89.9453 199.947 89.39C200.357 88.83 200.563 88.1043 200.563 87.213C200.563 86.2983 200.355 85.5703 199.94 85.029C199.529 84.4877 198.906 84.217 198.071 84.217C197.506 84.217 197.039 84.3453 196.671 84.602C196.307 84.854 196.034 85.2063 195.852 85.659C195.674 86.107 195.586 86.625 195.586 87.213C195.586 88.123 195.796 88.8533 196.216 89.404C196.636 89.95 197.254 90.223 198.071 90.223ZM206.594 91.21C205.898 91.21 205.31 91.035 204.83 90.685C204.349 90.3303 203.985 89.852 203.738 89.25C203.49 88.6433 203.367 87.9643 203.367 87.213C203.367 86.4477 203.49 85.7663 203.738 85.169C203.99 84.567 204.358 84.0933 204.844 83.748C205.329 83.4027 205.926 83.23 206.636 83.23C207.326 83.23 207.919 83.405 208.414 83.755C208.908 84.105 209.286 84.581 209.548 85.183C209.814 85.785 209.947 86.4617 209.947 87.213C209.947 87.969 209.814 88.648 209.548 89.25C209.282 89.852 208.899 90.3303 208.4 90.685C207.9 91.035 207.298 91.21 206.594 91.21ZM203.192 94.36V83.44H204.116V89.131H204.228V94.36H203.192ZM206.489 90.251C207.016 90.251 207.455 90.118 207.805 89.852C208.155 89.586 208.416 89.2243 208.589 88.767C208.766 88.305 208.855 87.787 208.855 87.213C208.855 86.6437 208.768 86.1303 208.596 85.673C208.423 85.2157 208.159 84.854 207.805 84.588C207.455 84.322 207.009 84.189 206.468 84.189C205.94 84.189 205.502 84.3173 205.152 84.574C204.806 84.8307 204.547 85.1877 204.375 85.645C204.202 86.0977 204.116 86.6203 204.116 87.213C204.116 87.7963 204.202 88.319 204.375 88.781C204.547 89.2383 204.809 89.5977 205.159 89.859C205.509 90.1203 205.952 90.251 206.489 90.251ZM215.236 82.25H214.354L215.187 80.08H216.069L215.236 82.25ZM214.683 91.21C213.946 91.21 213.306 91.0467 212.765 90.72C212.228 90.3933 211.811 89.9337 211.512 89.341C211.213 88.7483 211.064 88.053 211.064 87.255C211.064 86.429 211.211 85.715 211.505 85.113C211.799 84.511 212.212 84.0467 212.744 83.72C213.281 83.3933 213.913 83.23 214.641 83.23C215.388 83.23 216.025 83.4027 216.552 83.748C217.079 84.0887 217.478 84.5787 217.749 85.218C218.02 85.8573 218.143 86.6203 218.12 87.507H217.07V87.143C217.051 86.163 216.839 85.4233 216.433 84.924C216.032 84.4247 215.444 84.175 214.669 84.175C213.857 84.175 213.234 84.4387 212.8 84.966C212.371 85.4933 212.156 86.2447 212.156 87.22C212.156 88.172 212.371 88.9117 212.8 89.439C213.234 89.9617 213.848 90.223 214.641 90.223C215.182 90.223 215.654 90.0993 216.055 89.852C216.461 89.6 216.781 89.2383 217.014 88.767L217.973 89.138C217.674 89.796 217.233 90.307 216.65 90.671C216.071 91.0303 215.416 91.21 214.683 91.21ZM211.792 87.507V86.646H217.567V87.507H211.792ZM219.673 91V83.44H220.597V85.26L220.415 85.022C220.499 84.798 220.609 84.5927 220.744 84.406C220.88 84.2147 221.027 84.0583 221.185 83.937C221.381 83.7643 221.61 83.6337 221.871 83.545C222.133 83.4517 222.396 83.398 222.662 83.384C222.928 83.3653 223.171 83.384 223.39 83.44V84.406C223.115 84.336 222.814 84.3197 222.487 84.357C222.161 84.3943 221.86 84.525 221.584 84.749C221.332 84.945 221.143 85.1807 221.017 85.456C220.891 85.7267 220.807 86.016 220.765 86.324C220.723 86.6273 220.702 86.9283 220.702 87.227V91H219.673ZM226.594 91.21C226.025 91.21 225.547 91.1073 225.159 90.902C224.777 90.6967 224.49 90.4237 224.298 90.083C224.107 89.7423 224.011 89.3713 224.011 88.97C224.011 88.5593 224.093 88.2093 224.256 87.92C224.424 87.626 224.651 87.3857 224.935 87.199C225.225 87.0123 225.558 86.87 225.936 86.772C226.319 86.6787 226.741 86.597 227.203 86.527C227.67 86.4523 228.125 86.3893 228.568 86.338C229.016 86.282 229.408 86.2283 229.744 86.177L229.38 86.401C229.394 85.6543 229.25 85.1013 228.946 84.742C228.643 84.3827 228.116 84.203 227.364 84.203C226.846 84.203 226.408 84.3197 226.048 84.553C225.694 84.7863 225.444 85.155 225.299 85.659L224.298 85.365C224.471 84.6883 224.819 84.1633 225.341 83.79C225.864 83.4167 226.543 83.23 227.378 83.23C228.069 83.23 228.655 83.3607 229.135 83.622C229.621 83.8787 229.964 84.252 230.164 84.742C230.258 84.9613 230.318 85.2063 230.346 85.477C230.374 85.7477 230.388 86.023 230.388 86.303V91H229.471V89.103L229.737 89.215C229.481 89.8637 229.082 90.3583 228.54 90.699C227.999 91.0397 227.35 91.21 226.594 91.21ZM226.713 90.321C227.194 90.321 227.614 90.2347 227.973 90.062C228.333 89.8893 228.622 89.6537 228.841 89.355C229.061 89.0517 229.203 88.711 229.268 88.333C229.324 88.0903 229.355 87.8243 229.359 87.535C229.364 87.241 229.366 87.0217 229.366 86.877L229.758 87.08C229.408 87.1267 229.028 87.1733 228.617 87.22C228.211 87.2667 227.81 87.3203 227.413 87.381C227.021 87.4417 226.667 87.514 226.349 87.598C226.135 87.6587 225.927 87.745 225.726 87.857C225.526 87.9643 225.36 88.109 225.229 88.291C225.103 88.473 225.04 88.6993 225.04 88.97C225.04 89.1893 225.094 89.4017 225.201 89.607C225.313 89.8123 225.491 89.9827 225.733 90.118C225.981 90.2533 226.307 90.321 226.713 90.321ZM236.326 91C235.902 91.0887 235.482 91.1237 235.066 91.105C234.656 91.0863 234.287 90.9977 233.96 90.839C233.638 90.6803 233.393 90.433 233.225 90.097C233.09 89.817 233.015 89.5347 233.001 89.25C232.992 88.9607 232.987 88.6317 232.987 88.263V81.34H234.009V88.221C234.009 88.5383 234.012 88.8043 234.016 89.019C234.026 89.229 234.075 89.4157 234.163 89.579C234.331 89.8917 234.597 90.0783 234.961 90.139C235.33 90.1997 235.785 90.1857 236.326 90.097V91ZM231.37 84.322V83.44H236.326V84.322H231.37ZM237.956 82.005V80.85H238.985V82.005H237.956ZM237.956 91V83.44H238.985V91H237.956ZM244.241 91.21C243.489 91.21 242.848 91.0397 242.316 90.699C241.784 90.3583 241.375 89.887 241.091 89.285C240.806 88.683 240.664 87.9923 240.664 87.213C240.664 86.4197 240.808 85.7243 241.098 85.127C241.387 84.5297 241.798 84.0653 242.33 83.734C242.866 83.398 243.503 83.23 244.241 83.23C244.997 83.23 245.641 83.4003 246.173 83.741C246.709 84.077 247.118 84.546 247.398 85.148C247.682 85.7453 247.825 86.4337 247.825 87.213C247.825 88.0063 247.682 88.704 247.398 89.306C247.113 89.9033 246.702 90.37 246.166 90.706C245.629 91.042 244.987 91.21 244.241 91.21ZM244.241 90.223C245.081 90.223 245.706 89.9453 246.117 89.39C246.527 88.83 246.733 88.1043 246.733 87.213C246.733 86.2983 246.525 85.5703 246.11 85.029C245.699 84.4877 245.076 84.217 244.241 84.217C243.676 84.217 243.209 84.3453 242.841 84.602C242.477 84.854 242.204 85.2063 242.022 85.659C241.844 86.107 241.756 86.625 241.756 87.213C241.756 88.123 241.966 88.8533 242.386 89.404C242.806 89.95 243.424 90.223 244.241 90.223ZM254.829 91V87.143C254.829 86.723 254.789 86.338 254.71 85.988C254.63 85.6333 254.502 85.3253 254.325 85.064C254.152 84.798 253.926 84.5927 253.646 84.448C253.37 84.3033 253.034 84.231 252.638 84.231C252.274 84.231 251.952 84.294 251.672 84.42C251.396 84.546 251.163 84.728 250.972 84.966C250.785 85.1993 250.643 85.484 250.545 85.82C250.447 86.156 250.398 86.5387 250.398 86.968L249.67 86.807C249.67 86.0323 249.805 85.3813 250.076 84.854C250.346 84.3267 250.72 83.9277 251.196 83.657C251.672 83.3863 252.218 83.251 252.834 83.251C253.286 83.251 253.681 83.321 254.017 83.461C254.357 83.601 254.644 83.79 254.878 84.028C255.116 84.266 255.307 84.539 255.452 84.847C255.596 85.1503 255.701 85.4747 255.767 85.82C255.832 86.1607 255.865 86.5013 255.865 86.842V91H254.829ZM249.362 91V83.44H250.293V85.302H250.398V91H249.362ZM56.4862 110.21C55.7816 110.21 55.1796 110.035 54.6802 109.685C54.1809 109.33 53.7982 108.852 53.5322 108.25C53.2662 107.648 53.1332 106.969 53.1332 106.213C53.1332 105.462 53.2639 104.785 53.5252 104.183C53.7912 103.581 54.1716 103.105 54.6662 102.755C55.1609 102.405 55.7536 102.23 56.4442 102.23C57.1536 102.23 57.7509 102.403 58.2362 102.748C58.7216 103.093 59.0879 103.567 59.3352 104.169C59.5872 104.766 59.7132 105.448 59.7132 106.213C59.7132 106.964 59.5896 107.643 59.3422 108.25C59.0949 108.852 58.7309 109.33 58.2502 109.685C57.7696 110.035 57.1816 110.21 56.4862 110.21ZM56.5912 109.251C57.1279 109.251 57.5712 109.12 57.9212 108.859C58.2712 108.598 58.5326 108.238 58.7052 107.781C58.8779 107.319 58.9642 106.796 58.9642 106.213C58.9642 105.62 58.8779 105.098 58.7052 104.645C58.5326 104.188 58.2712 103.831 57.9212 103.574C57.5759 103.317 57.1396 103.189 56.6122 103.189C56.0709 103.189 55.6229 103.322 55.2682 103.588C54.9136 103.854 54.6499 104.216 54.4772 104.673C54.3092 105.13 54.2252 105.644 54.2252 106.213C54.2252 106.787 54.3116 107.305 54.4842 107.767C54.6616 108.224 54.9252 108.586 55.2752 108.852C55.6252 109.118 56.0639 109.251 56.5912 109.251ZM58.9642 110V104.309H58.8522V99.92H59.8882V110H58.9642ZM65.0511 110.21C64.3137 110.21 63.6744 110.047 63.1331 109.72C62.5964 109.393 62.1787 108.934 61.8801 108.341C61.5814 107.748 61.4321 107.053 61.4321 106.255C61.4321 105.429 61.5791 104.715 61.8731 104.113C62.1671 103.511 62.5801 103.047 63.1121 102.72C63.6487 102.393 64.2811 102.23 65.0091 102.23C65.7557 102.23 66.3927 102.403 66.9201 102.748C67.4474 103.089 67.8464 103.579 68.1171 104.218C68.3877 104.857 68.5114 105.62 68.4881 106.507H67.4381V106.143C67.4194 105.163 67.2071 104.423 66.8011 103.924C66.3997 103.425 65.8117 103.175 65.0371 103.175C64.2251 103.175 63.6021 103.439 63.1681 103.966C62.7387 104.493 62.5241 105.245 62.5241 106.22C62.5241 107.172 62.7387 107.912 63.1681 108.439C63.6021 108.962 64.2157 109.223 65.0091 109.223C65.5504 109.223 66.0217 109.099 66.4231 108.852C66.8291 108.6 67.1487 108.238 67.3821 107.767L68.3411 108.138C68.0424 108.796 67.6014 109.307 67.0181 109.671C66.4394 110.03 65.7837 110.21 65.0511 110.21ZM62.1601 106.507V105.646H67.9351V106.507H62.1601ZM72.8443 110V102.44H73.7683V104.26L73.5863 104.022C73.6703 103.798 73.7799 103.593 73.9153 103.406C74.0506 103.215 74.1976 103.058 74.3563 102.937C74.5523 102.764 74.7809 102.634 75.0423 102.545C75.3036 102.452 75.5673 102.398 75.8333 102.384C76.0993 102.365 76.3419 102.384 76.5613 102.44V103.406C76.2859 103.336 75.9849 103.32 75.6583 103.357C75.3316 103.394 75.0306 103.525 74.7553 103.749C74.5033 103.945 74.3143 104.181 74.1883 104.456C74.0623 104.727 73.9783 105.016 73.9363 105.324C73.8943 105.627 73.8733 105.928 73.8733 106.227V110H72.8443ZM81.6412 101.25H80.7592L81.5922 99.08H82.4742L81.6412 101.25ZM81.0882 110.21C80.3508 110.21 79.7115 110.047 79.1702 109.72C78.6335 109.393 78.2158 108.934 77.9172 108.341C77.6185 107.748 77.4692 107.053 77.4692 106.255C77.4692 105.429 77.6162 104.715 77.9102 104.113C78.2042 103.511 78.6172 103.047 79.1492 102.72C79.6858 102.393 80.3182 102.23 81.0462 102.23C81.7928 102.23 82.4298 102.403 82.9572 102.748C83.4845 103.089 83.8835 103.579 84.1542 104.218C84.4248 104.857 84.5485 105.62 84.5252 106.507H83.4752V106.143C83.4565 105.163 83.2442 104.423 82.8382 103.924C82.4368 103.425 81.8488 103.175 81.0742 103.175C80.2622 103.175 79.6392 103.439 79.2052 103.966C78.7758 104.493 78.5612 105.245 78.5612 106.22C78.5612 107.172 78.7758 107.912 79.2052 108.439C79.6392 108.962 80.2528 109.223 81.0462 109.223C81.5875 109.223 82.0588 109.099 82.4602 108.852C82.8662 108.6 83.1858 108.238 83.4192 107.767L84.3782 108.138C84.0795 108.796 83.6385 109.307 83.0552 109.671C82.4765 110.03 81.8208 110.21 81.0882 110.21ZM78.1972 106.507V105.646H83.9722V106.507H78.1972ZM89.2146 110.21C88.454 110.21 87.81 110.04 87.2826 109.699C86.7553 109.358 86.354 108.889 86.0786 108.292C85.808 107.69 85.668 106.999 85.6586 106.22C85.668 105.427 85.8126 104.731 86.0926 104.134C86.3726 103.532 86.7763 103.065 87.3036 102.734C87.831 102.398 88.4703 102.23 89.2216 102.23C89.987 102.23 90.652 102.417 91.2166 102.79C91.786 103.163 92.1756 103.674 92.3856 104.323L91.3776 104.645C91.2003 104.192 90.918 103.842 90.5306 103.595C90.148 103.343 89.7093 103.217 89.2146 103.217C88.6593 103.217 88.1996 103.345 87.8356 103.602C87.4716 103.854 87.201 104.206 87.0236 104.659C86.8463 105.112 86.7553 105.632 86.7506 106.22C86.76 107.125 86.97 107.853 87.3806 108.404C87.7913 108.95 88.4026 109.223 89.2146 109.223C89.728 109.223 90.1643 109.106 90.5236 108.873C90.8876 108.635 91.163 108.29 91.3496 107.837L92.3856 108.145C92.1056 108.817 91.695 109.33 91.1536 109.685C90.6123 110.035 89.966 110.21 89.2146 110.21ZM96.7216 110.189C96.2689 110.189 95.8723 110.119 95.5316 109.979C95.1956 109.839 94.9086 109.65 94.6706 109.412C94.4373 109.174 94.2483 108.903 94.1036 108.6C93.9589 108.292 93.8539 107.968 93.7886 107.627C93.7233 107.282 93.6906 106.939 93.6906 106.598V102.44H94.7266V106.297C94.7266 106.712 94.7663 107.097 94.8456 107.452C94.9249 107.807 95.0509 108.117 95.2236 108.383C95.4009 108.644 95.6273 108.847 95.9026 108.992C96.1826 109.137 96.5209 109.209 96.9176 109.209C97.2816 109.209 97.6013 109.146 97.8766 109.02C98.1566 108.894 98.3899 108.714 98.5766 108.481C98.7679 108.243 98.9126 107.956 99.0106 107.62C99.1086 107.279 99.1576 106.897 99.1576 106.472L99.8856 106.633C99.8856 107.408 99.7503 108.059 99.4796 108.586C99.2089 109.113 98.8356 109.512 98.3596 109.783C97.8836 110.054 97.3376 110.189 96.7216 110.189ZM99.2626 110V108.138H99.1576V102.44H100.187V110H99.2626ZM105.538 110.21C104.843 110.21 104.255 110.035 103.774 109.685C103.293 109.33 102.929 108.852 102.682 108.25C102.435 107.643 102.311 106.964 102.311 106.213C102.311 105.448 102.435 104.766 102.682 104.169C102.934 103.567 103.303 103.093 103.788 102.748C104.273 102.403 104.871 102.23 105.58 102.23C106.271 102.23 106.863 102.405 107.358 102.755C107.853 103.105 108.231 103.581 108.492 104.183C108.758 104.785 108.891 105.462 108.891 106.213C108.891 106.969 108.758 107.648 108.492 108.25C108.226 108.852 107.843 109.33 107.344 109.685C106.845 110.035 106.243 110.21 105.538 110.21ZM102.136 113.36V102.44H103.06V108.131H103.172V113.36H102.136ZM105.433 109.251C105.96 109.251 106.399 109.118 106.749 108.852C107.099 108.586 107.36 108.224 107.533 107.767C107.71 107.305 107.799 106.787 107.799 106.213C107.799 105.644 107.713 105.13 107.54 104.673C107.367 104.216 107.104 103.854 106.749 103.588C106.399 103.322 105.953 103.189 105.412 103.189C104.885 103.189 104.446 103.317 104.096 103.574C103.751 103.831 103.492 104.188 103.319 104.645C103.146 105.098 103.06 105.62 103.06 106.213C103.06 106.796 103.146 107.319 103.319 107.781C103.492 108.238 103.753 108.598 104.103 108.859C104.453 109.12 104.896 109.251 105.433 109.251ZM114.18 101.25H113.298L114.131 99.08H115.013L114.18 101.25ZM113.627 110.21C112.89 110.21 112.251 110.047 111.709 109.72C111.173 109.393 110.755 108.934 110.456 108.341C110.158 107.748 110.008 107.053 110.008 106.255C110.008 105.429 110.155 104.715 110.449 104.113C110.743 103.511 111.156 103.047 111.688 102.72C112.225 102.393 112.857 102.23 113.585 102.23C114.332 102.23 114.969 102.403 115.496 102.748C116.024 103.089 116.423 103.579 116.693 104.218C116.964 104.857 117.088 105.62 117.064 106.507H116.014V106.143C115.996 105.163 115.783 104.423 115.377 103.924C114.976 103.425 114.388 103.175 113.613 103.175C112.801 103.175 112.178 103.439 111.744 103.966C111.315 104.493 111.1 105.245 111.1 106.22C111.1 107.172 111.315 107.912 111.744 108.439C112.178 108.962 112.792 109.223 113.585 109.223C114.127 109.223 114.598 109.099 114.999 108.852C115.405 108.6 115.725 108.238 115.958 107.767L116.917 108.138C116.619 108.796 116.178 109.307 115.594 109.671C115.016 110.03 114.36 110.21 113.627 110.21ZM110.736 106.507V105.646H116.511V106.507H110.736ZM118.618 110V102.44H119.542V104.26L119.36 104.022C119.444 103.798 119.553 103.593 119.689 103.406C119.824 103.215 119.971 103.058 120.13 102.937C120.326 102.764 120.554 102.634 120.816 102.545C121.077 102.452 121.341 102.398 121.607 102.384C121.873 102.365 122.115 102.384 122.335 102.44V103.406C122.059 103.336 121.758 103.32 121.432 103.357C121.105 103.394 120.804 103.525 120.529 103.749C120.277 103.945 120.088 104.181 119.962 104.456C119.836 104.727 119.752 105.016 119.71 105.324C119.668 105.627 119.647 105.928 119.647 106.227V110H118.618ZM125.539 110.21C124.969 110.21 124.491 110.107 124.104 109.902C123.721 109.697 123.434 109.424 123.243 109.083C123.051 108.742 122.956 108.371 122.956 107.97C122.956 107.559 123.037 107.209 123.201 106.92C123.369 106.626 123.595 106.386 123.88 106.199C124.169 106.012 124.503 105.87 124.881 105.772C125.263 105.679 125.686 105.597 126.148 105.527C126.614 105.452 127.069 105.389 127.513 105.338C127.961 105.282 128.353 105.228 128.689 105.177L128.325 105.401C128.339 104.654 128.194 104.101 127.891 103.742C127.587 103.383 127.06 103.203 126.309 103.203C125.791 103.203 125.352 103.32 124.993 103.553C124.638 103.786 124.388 104.155 124.244 104.659L123.243 104.365C123.415 103.688 123.763 103.163 124.286 102.79C124.808 102.417 125.487 102.23 126.323 102.23C127.013 102.23 127.599 102.361 128.08 102.622C128.565 102.879 128.908 103.252 129.109 103.742C129.202 103.961 129.263 104.206 129.291 104.477C129.319 104.748 129.333 105.023 129.333 105.303V110H128.416V108.103L128.682 108.215C128.425 108.864 128.026 109.358 127.485 109.699C126.943 110.04 126.295 110.21 125.539 110.21ZM125.658 109.321C126.138 109.321 126.558 109.235 126.918 109.062C127.277 108.889 127.566 108.654 127.786 108.355C128.005 108.052 128.147 107.711 128.213 107.333C128.269 107.09 128.299 106.824 128.304 106.535C128.308 106.241 128.311 106.022 128.311 105.877L128.703 106.08C128.353 106.127 127.972 106.173 127.562 106.22C127.156 106.267 126.754 106.32 126.358 106.381C125.966 106.442 125.611 106.514 125.294 106.598C125.079 106.659 124.871 106.745 124.671 106.857C124.47 106.964 124.304 107.109 124.174 107.291C124.048 107.473 123.985 107.699 123.985 107.97C123.985 108.189 124.038 108.402 124.146 108.607C124.258 108.812 124.435 108.983 124.678 109.118C124.925 109.253 125.252 109.321 125.658 109.321ZM135.271 110C134.846 110.089 134.426 110.124 134.011 110.105C133.6 110.086 133.231 109.998 132.905 109.839C132.583 109.68 132.338 109.433 132.17 109.097C132.034 108.817 131.96 108.535 131.946 108.25C131.936 107.961 131.932 107.632 131.932 107.263V100.34H132.954V107.221C132.954 107.538 132.956 107.804 132.961 108.019C132.97 108.229 133.019 108.416 133.108 108.579C133.276 108.892 133.542 109.078 133.906 109.139C134.274 109.2 134.729 109.186 135.271 109.097V110ZM130.315 103.322V102.44H135.271V103.322H130.315ZM136.9 101.005V99.85H137.929V101.005H136.9ZM136.9 110V102.44H137.929V110H136.9ZM143.185 110.21C142.434 110.21 141.792 110.04 141.26 109.699C140.728 109.358 140.32 108.887 140.035 108.285C139.75 107.683 139.608 106.992 139.608 106.213C139.608 105.42 139.753 104.724 140.042 104.127C140.331 103.53 140.742 103.065 141.274 102.734C141.811 102.398 142.448 102.23 143.185 102.23C143.941 102.23 144.585 102.4 145.117 102.741C145.654 103.077 146.062 103.546 146.342 104.148C146.627 104.745 146.769 105.434 146.769 106.213C146.769 107.006 146.627 107.704 146.342 108.306C146.057 108.903 145.647 109.37 145.11 109.706C144.573 110.042 143.932 110.21 143.185 110.21ZM143.185 109.223C144.025 109.223 144.65 108.945 145.061 108.39C145.472 107.83 145.677 107.104 145.677 106.213C145.677 105.298 145.469 104.57 145.054 104.029C144.643 103.488 144.02 103.217 143.185 103.217C142.62 103.217 142.154 103.345 141.785 103.602C141.421 103.854 141.148 104.206 140.966 104.659C140.789 105.107 140.7 105.625 140.7 106.213C140.7 107.123 140.91 107.853 141.33 108.404C141.75 108.95 142.368 109.223 143.185 109.223ZM153.773 110V106.143C153.773 105.723 153.733 105.338 153.654 104.988C153.575 104.633 153.446 104.325 153.269 104.064C153.096 103.798 152.87 103.593 152.59 103.448C152.315 103.303 151.979 103.231 151.582 103.231C151.218 103.231 150.896 103.294 150.616 103.42C150.341 103.546 150.107 103.728 149.916 103.966C149.729 104.199 149.587 104.484 149.489 104.82C149.391 105.156 149.342 105.539 149.342 105.968L148.614 105.807C148.614 105.032 148.749 104.381 149.02 103.854C149.291 103.327 149.664 102.928 150.14 102.657C150.616 102.386 151.162 102.251 151.778 102.251C152.231 102.251 152.625 102.321 152.961 102.461C153.302 102.601 153.589 102.79 153.822 103.028C154.06 103.266 154.251 103.539 154.396 103.847C154.541 104.15 154.646 104.475 154.711 104.82C154.776 105.161 154.809 105.501 154.809 105.842V110H153.773ZM148.306 110V102.44H149.237V104.302H149.342V110H148.306ZM156.822 110V108.803H158.019V110H156.822ZM165.545 110L162.073 99.92H163.144L166.217 108.831L169.311 99.92H170.382L166.91 110H165.545ZM173.755 110.21C173.004 110.21 172.362 110.04 171.83 109.699C171.298 109.358 170.89 108.887 170.605 108.285C170.32 107.683 170.178 106.992 170.178 106.213C170.178 105.42 170.323 104.724 170.612 104.127C170.901 103.53 171.312 103.065 171.844 102.734C172.381 102.398 173.018 102.23 173.755 102.23C174.511 102.23 175.155 102.4 175.687 102.741C176.224 103.077 176.632 103.546 176.912 104.148C177.197 104.745 177.339 105.434 177.339 106.213C177.339 107.006 177.197 107.704 176.912 108.306C176.627 108.903 176.217 109.37 175.68 109.706C175.143 110.042 174.502 110.21 173.755 110.21ZM173.755 109.223C174.595 109.223 175.22 108.945 175.631 108.39C176.042 107.83 176.247 107.104 176.247 106.213C176.247 105.298 176.039 104.57 175.624 104.029C175.213 103.488 174.59 103.217 173.755 103.217C173.19 103.217 172.724 103.345 172.355 103.602C171.991 103.854 171.718 104.206 171.536 104.659C171.359 105.107 171.27 105.625 171.27 106.213C171.27 107.123 171.48 107.853 171.9 108.404C172.32 108.95 172.938 109.223 173.755 109.223ZM181.774 110.189C181.322 110.189 180.925 110.119 180.584 109.979C180.248 109.839 179.961 109.65 179.723 109.412C179.49 109.174 179.301 108.903 179.156 108.6C179.012 108.292 178.907 107.968 178.841 107.627C178.776 107.282 178.743 106.939 178.743 106.598V102.44H179.779V106.297C179.779 106.712 179.819 107.097 179.898 107.452C179.978 107.807 180.104 108.117 180.276 108.383C180.454 108.644 180.68 108.847 180.955 108.992C181.235 109.137 181.574 109.209 181.97 109.209C182.334 109.209 182.654 109.146 182.929 109.02C183.209 108.894 183.443 108.714 183.629 108.481C183.821 108.243 183.965 107.956 184.063 107.62C184.161 107.279 184.21 106.897 184.21 106.472L184.938 106.633C184.938 107.408 184.803 108.059 184.532 108.586C184.262 109.113 183.888 109.512 183.412 109.783C182.936 110.054 182.39 110.189 181.774 110.189ZM184.315 110V108.138H184.21V102.44H185.239V110H184.315ZM190.017 110.203C189.13 110.203 188.4 110.012 187.826 109.629C187.256 109.246 186.906 108.714 186.776 108.033L187.826 107.858C187.938 108.287 188.192 108.63 188.589 108.887C188.99 109.139 189.485 109.265 190.073 109.265C190.647 109.265 191.099 109.146 191.431 108.908C191.762 108.665 191.928 108.336 191.928 107.921C191.928 107.688 191.874 107.499 191.767 107.354C191.664 107.205 191.452 107.067 191.13 106.941C190.808 106.815 190.327 106.666 189.688 106.493C189.002 106.306 188.465 106.12 188.078 105.933C187.69 105.746 187.415 105.532 187.252 105.289C187.088 105.042 187.007 104.741 187.007 104.386C187.007 103.957 187.128 103.581 187.371 103.259C187.613 102.932 187.949 102.68 188.379 102.503C188.808 102.321 189.307 102.23 189.877 102.23C190.446 102.23 190.955 102.323 191.403 102.51C191.855 102.692 192.219 102.949 192.495 103.28C192.77 103.611 192.933 103.996 192.985 104.435L191.935 104.624C191.865 104.181 191.643 103.831 191.27 103.574C190.901 103.313 190.432 103.177 189.863 103.168C189.326 103.154 188.89 103.257 188.554 103.476C188.218 103.691 188.05 103.978 188.05 104.337C188.05 104.538 188.11 104.71 188.232 104.855C188.353 104.995 188.572 105.128 188.89 105.254C189.212 105.38 189.669 105.518 190.262 105.667C190.957 105.844 191.503 106.031 191.9 106.227C192.296 106.423 192.579 106.654 192.747 106.92C192.915 107.186 192.999 107.515 192.999 107.907C192.999 108.621 192.733 109.183 192.201 109.594C191.673 110 190.945 110.203 190.017 110.203ZM200.175 110.203C199.288 110.203 198.558 110.012 197.984 109.629C197.415 109.246 197.065 108.714 196.934 108.033L197.984 107.858C198.096 108.287 198.35 108.63 198.747 108.887C199.148 109.139 199.643 109.265 200.231 109.265C200.805 109.265 201.258 109.146 201.589 108.908C201.92 108.665 202.086 108.336 202.086 107.921C202.086 107.688 202.032 107.499 201.925 107.354C201.822 107.205 201.61 107.067 201.288 106.941C200.966 106.815 200.485 106.666 199.846 106.493C199.16 106.306 198.623 106.12 198.236 105.933C197.849 105.746 197.573 105.532 197.41 105.289C197.247 105.042 197.165 104.741 197.165 104.386C197.165 103.957 197.286 103.581 197.529 103.259C197.772 102.932 198.108 102.68 198.537 102.503C198.966 102.321 199.466 102.23 200.035 102.23C200.604 102.23 201.113 102.323 201.561 102.51C202.014 102.692 202.378 102.949 202.653 103.28C202.928 103.611 203.092 103.996 203.143 104.435L202.093 104.624C202.023 104.181 201.801 103.831 201.428 103.574C201.059 103.313 200.59 103.177 200.021 103.168C199.484 103.154 199.048 103.257 198.712 103.476C198.376 103.691 198.208 103.978 198.208 104.337C198.208 104.538 198.269 104.71 198.39 104.855C198.511 104.995 198.731 105.128 199.048 105.254C199.37 105.38 199.827 105.518 200.42 105.667C201.115 105.844 201.661 106.031 202.058 106.227C202.455 106.423 202.737 106.654 202.905 106.92C203.073 107.186 203.157 107.515 203.157 107.907C203.157 108.621 202.891 109.183 202.359 109.594C201.832 110 201.104 110.203 200.175 110.203ZM207.908 110.21C207.171 110.21 206.532 110.047 205.99 109.72C205.454 109.393 205.036 108.934 204.737 108.341C204.439 107.748 204.289 107.053 204.289 106.255C204.289 105.429 204.436 104.715 204.73 104.113C205.024 103.511 205.437 103.047 205.969 102.72C206.506 102.393 207.138 102.23 207.866 102.23C208.613 102.23 209.25 102.403 209.777 102.748C210.305 103.089 210.704 103.579 210.974 104.218C211.245 104.857 211.369 105.62 211.345 106.507H210.295V106.143C210.277 105.163 210.064 104.423 209.658 103.924C209.257 103.425 208.669 103.175 207.894 103.175C207.082 103.175 206.459 103.439 206.025 103.966C205.596 104.493 205.381 105.245 205.381 106.22C205.381 107.172 205.596 107.912 206.025 108.439C206.459 108.962 207.073 109.223 207.866 109.223C208.408 109.223 208.879 109.099 209.28 108.852C209.686 108.6 210.006 108.238 210.239 107.767L211.198 108.138C210.9 108.796 210.459 109.307 209.875 109.671C209.297 110.03 208.641 110.21 207.908 110.21ZM205.017 106.507V105.646H210.792V106.507H205.017ZM212.899 110V102.44H213.823V104.26L213.641 104.022C213.725 103.798 213.835 103.593 213.97 103.406C214.105 103.215 214.252 103.058 214.411 102.937C214.607 102.764 214.836 102.634 215.097 102.545C215.358 102.452 215.622 102.398 215.888 102.384C216.154 102.365 216.397 102.384 216.616 102.44V103.406C216.341 103.336 216.04 103.32 215.713 103.357C215.386 103.394 215.085 103.525 214.81 103.749C214.558 103.945 214.369 104.181 214.243 104.456C214.117 104.727 214.033 105.016 213.991 105.324C213.949 105.627 213.928 105.928 213.928 106.227V110H212.899ZM221.006 110.21C220.269 110.21 219.629 110.047 219.088 109.72C218.551 109.393 218.134 108.934 217.835 108.341C217.536 107.748 217.387 107.053 217.387 106.255C217.387 105.429 217.534 104.715 217.828 104.113C218.122 103.511 218.535 103.047 219.067 102.72C219.604 102.393 220.236 102.23 220.964 102.23C221.711 102.23 222.348 102.403 222.875 102.748C223.402 103.089 223.801 103.579 224.072 104.218C224.343 104.857 224.466 105.62 224.443 106.507H223.393V106.143C223.374 105.163 223.162 104.423 222.756 103.924C222.355 103.425 221.767 103.175 220.992 103.175C220.18 103.175 219.557 103.439 219.123 103.966C218.694 104.493 218.479 105.245 218.479 106.22C218.479 107.172 218.694 107.912 219.123 108.439C219.557 108.962 220.171 109.223 220.964 109.223C221.505 109.223 221.977 109.099 222.378 108.852C222.784 108.6 223.104 108.238 223.337 107.767L224.296 108.138C223.997 108.796 223.556 109.307 222.973 109.671C222.394 110.03 221.739 110.21 221.006 110.21ZM218.115 106.507V105.646H223.89V106.507H218.115ZM225.297 110V109.783L230.176 103.399H225.661V102.44H231.87V102.678L226.998 109.041H231.604V110H225.297ZM76.8279 129.21C76.0672 129.21 75.4232 129.04 74.8959 128.699C74.3686 128.358 73.9672 127.889 73.6919 127.292C73.4212 126.69 73.2812 125.999 73.2719 125.22C73.2812 124.427 73.4259 123.731 73.7059 123.134C73.9859 122.532 74.3896 122.065 74.9169 121.734C75.4442 121.398 76.0836 121.23 76.8349 121.23C77.6002 121.23 78.2652 121.417 78.8299 121.79C79.3992 122.163 79.7889 122.674 79.9989 123.323L78.9909 123.645C78.8136 123.192 78.5312 122.842 78.1439 122.595C77.7612 122.343 77.3226 122.217 76.8279 122.217C76.2726 122.217 75.8129 122.345 75.4489 122.602C75.0849 122.854 74.8142 123.206 74.6369 123.659C74.4596 124.112 74.3686 124.632 74.3639 125.22C74.3732 126.125 74.5832 126.853 74.9939 127.404C75.4046 127.95 76.0159 128.223 76.8279 128.223C77.3412 128.223 77.7776 128.106 78.1369 127.873C78.5009 127.635 78.7762 127.29 78.9629 126.837L79.9989 127.145C79.7189 127.817 79.3082 128.33 78.7669 128.685C78.2256 129.035 77.5792 129.21 76.8279 129.21ZM84.3958 129.21C83.6445 129.21 83.0028 129.04 82.4708 128.699C81.9388 128.358 81.5305 127.887 81.2458 127.285C80.9611 126.683 80.8188 125.992 80.8188 125.213C80.8188 124.42 80.9635 123.724 81.2528 123.127C81.5421 122.53 81.9528 122.065 82.4848 121.734C83.0215 121.398 83.6585 121.23 84.3958 121.23C85.1518 121.23 85.7958 121.4 86.3278 121.741C86.8645 122.077 87.2728 122.546 87.5528 123.148C87.8375 123.745 87.9798 124.434 87.9798 125.213C87.9798 126.006 87.8375 126.704 87.5528 127.306C87.2681 127.903 86.8575 128.37 86.3208 128.706C85.7841 129.042 85.1425 129.21 84.3958 129.21ZM84.3958 128.223C85.2358 128.223 85.8611 127.945 86.2718 127.39C86.6825 126.83 86.8878 126.104 86.8878 125.213C86.8878 124.298 86.6801 123.57 86.2648 123.029C85.8541 122.488 85.2311 122.217 84.3958 122.217C83.8311 122.217 83.3645 122.345 82.9958 122.602C82.6318 122.854 82.3588 123.206 82.1768 123.659C81.9995 124.107 81.9108 124.625 81.9108 125.213C81.9108 126.123 82.1208 126.853 82.5408 127.404C82.9608 127.95 83.5791 128.223 84.3958 128.223ZM94.9839 129V125.143C94.9839 124.723 94.9443 124.338 94.8649 123.988C94.7856 123.633 94.6573 123.325 94.4799 123.064C94.3073 122.798 94.0809 122.593 93.8009 122.448C93.5256 122.303 93.1896 122.231 92.7929 122.231C92.4289 122.231 92.1069 122.294 91.8269 122.42C91.5516 122.546 91.3183 122.728 91.1269 122.966C90.9403 123.199 90.7979 123.484 90.6999 123.82C90.6019 124.156 90.5529 124.539 90.5529 124.968L89.8249 124.807C89.8249 124.032 89.9603 123.381 90.2309 122.854C90.5016 122.327 90.8749 121.928 91.3509 121.657C91.8269 121.386 92.3729 121.251 92.9889 121.251C93.4416 121.251 93.8359 121.321 94.1719 121.461C94.5126 121.601 94.7996 121.79 95.0329 122.028C95.2709 122.266 95.4623 122.539 95.6069 122.847C95.7516 123.15 95.8566 123.475 95.9219 123.82C95.9873 124.161 96.0199 124.501 96.0199 124.842V129H94.9839ZM89.5169 129V121.44H90.4479V123.302H90.5529V129H89.5169ZM101.952 129C101.528 129.089 101.108 129.124 100.692 129.105C100.282 129.086 99.9131 128.998 99.5864 128.839C99.2644 128.68 99.0194 128.433 98.8514 128.097C98.7161 127.817 98.6414 127.535 98.6274 127.25C98.6181 126.961 98.6134 126.632 98.6134 126.263V119.34H99.6354V126.221C99.6354 126.538 99.6378 126.804 99.6424 127.019C99.6518 127.229 99.7008 127.416 99.7894 127.579C99.9574 127.892 100.223 128.078 100.587 128.139C100.956 128.2 101.411 128.186 101.952 128.097V129ZM96.9964 122.322V121.44H101.952V122.322H96.9964ZM105.605 129.21C105.036 129.21 104.557 129.107 104.17 128.902C103.787 128.697 103.5 128.424 103.309 128.083C103.118 127.742 103.022 127.371 103.022 126.97C103.022 126.559 103.104 126.209 103.267 125.92C103.435 125.626 103.661 125.386 103.946 125.199C104.235 125.012 104.569 124.87 104.947 124.772C105.33 124.679 105.752 124.597 106.214 124.527C106.681 124.452 107.136 124.389 107.579 124.338C108.027 124.282 108.419 124.228 108.755 124.177L108.391 124.401C108.405 123.654 108.26 123.101 107.957 122.742C107.654 122.383 107.126 122.203 106.375 122.203C105.857 122.203 105.418 122.32 105.059 122.553C104.704 122.786 104.455 123.155 104.31 123.659L103.309 123.365C103.482 122.688 103.829 122.163 104.352 121.79C104.875 121.417 105.554 121.23 106.389 121.23C107.08 121.23 107.665 121.361 108.146 121.622C108.631 121.879 108.974 122.252 109.175 122.742C109.268 122.961 109.329 123.206 109.357 123.477C109.385 123.748 109.399 124.023 109.399 124.303V129H108.482V127.103L108.748 127.215C108.491 127.864 108.092 128.358 107.551 128.699C107.01 129.04 106.361 129.21 105.605 129.21ZM105.724 128.321C106.205 128.321 106.625 128.235 106.984 128.062C107.343 127.889 107.633 127.654 107.852 127.355C108.071 127.052 108.214 126.711 108.279 126.333C108.335 126.09 108.365 125.824 108.37 125.535C108.375 125.241 108.377 125.022 108.377 124.877L108.769 125.08C108.419 125.127 108.039 125.173 107.628 125.22C107.222 125.267 106.821 125.32 106.424 125.381C106.032 125.442 105.677 125.514 105.36 125.598C105.145 125.659 104.938 125.745 104.737 125.857C104.536 125.964 104.371 126.109 104.24 126.291C104.114 126.473 104.051 126.699 104.051 126.97C104.051 127.189 104.105 127.402 104.212 127.607C104.324 127.812 104.501 127.983 104.744 128.118C104.991 128.253 105.318 128.321 105.724 128.321ZM114.357 129.21C113.597 129.21 112.953 129.04 112.425 128.699C111.898 128.358 111.497 127.889 111.221 127.292C110.951 126.69 110.811 125.999 110.801 125.22C110.811 124.427 110.955 123.731 111.235 123.134C111.515 122.532 111.919 122.065 112.446 121.734C112.974 121.398 113.613 121.23 114.364 121.23C115.13 121.23 115.795 121.417 116.359 121.79C116.929 122.163 117.318 122.674 117.528 123.323L116.52 123.645C116.343 123.192 116.061 122.842 115.673 122.595C115.291 122.343 114.852 122.217 114.357 122.217C113.802 122.217 113.342 122.345 112.978 122.602C112.614 122.854 112.344 123.206 112.166 123.659C111.989 124.112 111.898 124.632 111.893 125.22C111.903 126.125 112.113 126.853 112.523 127.404C112.934 127.95 113.545 128.223 114.357 128.223C114.871 128.223 115.307 128.106 115.666 127.873C116.03 127.635 116.306 127.29 116.492 126.837L117.528 127.145C117.248 127.817 116.838 128.33 116.296 128.685C115.755 129.035 115.109 129.21 114.357 129.21ZM123.089 129C122.664 129.089 122.244 129.124 121.829 129.105C121.418 129.086 121.05 128.998 120.723 128.839C120.401 128.68 120.156 128.433 119.988 128.097C119.853 127.817 119.778 127.535 119.764 127.25C119.755 126.961 119.75 126.632 119.75 126.263V119.34H120.772V126.221C120.772 126.538 120.774 126.804 120.779 127.019C120.788 127.229 120.837 127.416 120.926 127.579C121.094 127.892 121.36 128.078 121.724 128.139C122.093 128.2 122.548 128.186 123.089 128.097V129ZM118.133 122.322V121.44H123.089V122.322H118.133ZM128.331 120.25H127.449L128.282 118.08H129.164L128.331 120.25ZM127.778 129.21C127.04 129.21 126.401 129.047 125.86 128.72C125.323 128.393 124.905 127.934 124.607 127.341C124.308 126.748 124.159 126.053 124.159 125.255C124.159 124.429 124.306 123.715 124.6 123.113C124.894 122.511 125.307 122.047 125.839 121.72C126.375 121.393 127.008 121.23 127.736 121.23C128.482 121.23 129.119 121.403 129.647 121.748C130.174 122.089 130.573 122.579 130.844 123.218C131.114 123.857 131.238 124.62 131.215 125.507H130.165V125.143C130.146 124.163 129.934 123.423 129.528 122.924C129.126 122.425 128.538 122.175 127.764 122.175C126.952 122.175 126.329 122.439 125.895 122.966C125.465 123.493 125.251 124.245 125.251 125.22C125.251 126.172 125.465 126.912 125.895 127.439C126.329 127.962 126.942 128.223 127.736 128.223C128.277 128.223 128.748 128.099 129.15 127.852C129.556 127.6 129.875 127.238 130.109 126.767L131.068 127.138C130.769 127.796 130.328 128.307 129.745 128.671C129.166 129.03 128.51 129.21 127.778 129.21ZM124.887 125.507V124.646H130.662V125.507H124.887ZM136.196 131.513C135.645 130.883 135.171 130.178 134.775 129.399C134.383 128.624 134.079 127.81 133.865 126.956C133.655 126.102 133.552 125.243 133.557 124.38C133.552 123.517 133.655 122.658 133.865 121.804C134.079 120.945 134.383 120.129 134.775 119.354C135.171 118.579 135.645 117.877 136.196 117.247L136.952 117.835C136.41 118.484 135.958 119.165 135.594 119.879C135.23 120.588 134.957 121.321 134.775 122.077C134.597 122.833 134.506 123.601 134.502 124.38C134.506 125.15 134.6 125.918 134.782 126.683C134.968 127.444 135.241 128.183 135.601 128.902C135.965 129.616 136.415 130.286 136.952 130.911L136.196 131.513ZM141.176 129.21C140.439 129.21 139.799 129.047 139.258 128.72C138.721 128.393 138.304 127.934 138.005 127.341C137.706 126.748 137.557 126.053 137.557 125.255C137.557 124.429 137.704 123.715 137.998 123.113C138.292 122.511 138.705 122.047 139.237 121.72C139.774 121.393 140.406 121.23 141.134 121.23C141.881 121.23 142.518 121.403 143.045 121.748C143.572 122.089 143.971 122.579 144.242 123.218C144.513 123.857 144.636 124.62 144.613 125.507H143.563V125.143C143.544 124.163 143.332 123.423 142.926 122.924C142.525 122.425 141.937 122.175 141.162 122.175C140.35 122.175 139.727 122.439 139.293 122.966C138.864 123.493 138.649 124.245 138.649 125.22C138.649 126.172 138.864 126.912 139.293 127.439C139.727 127.962 140.341 128.223 141.134 128.223C141.675 128.223 142.147 128.099 142.548 127.852C142.954 127.6 143.274 127.238 143.507 126.767L144.466 127.138C144.167 127.796 143.726 128.307 143.143 128.671C142.564 129.03 141.909 129.21 141.176 129.21ZM138.285 125.507V124.646H144.06V125.507H138.285ZM145.991 131.513L145.235 130.911C145.772 130.286 146.22 129.616 146.579 128.902C146.943 128.183 147.216 127.444 147.398 126.683C147.585 125.918 147.68 125.15 147.685 124.38C147.68 123.601 147.587 122.833 147.405 122.077C147.228 121.321 146.957 120.588 146.593 119.879C146.229 119.165 145.776 118.484 145.235 117.835L145.991 117.247C146.542 117.877 147.013 118.579 147.405 119.354C147.802 120.129 148.105 120.945 148.315 121.804C148.53 122.658 148.635 123.517 148.63 124.38C148.635 125.243 148.53 126.102 148.315 126.956C148.105 127.81 147.802 128.624 147.405 129.399C147.013 130.178 146.542 130.883 145.991 131.513ZM157.191 129.203C156.304 129.203 155.574 129.012 155 128.629C154.43 128.246 154.08 127.714 153.95 127.033L155 126.858C155.112 127.287 155.366 127.63 155.763 127.887C156.164 128.139 156.659 128.265 157.247 128.265C157.821 128.265 158.273 128.146 158.605 127.908C158.936 127.665 159.102 127.336 159.102 126.921C159.102 126.688 159.048 126.499 158.941 126.354C158.838 126.205 158.626 126.067 158.304 125.941C157.982 125.815 157.501 125.666 156.862 125.493C156.176 125.306 155.639 125.12 155.252 124.933C154.864 124.746 154.589 124.532 154.426 124.289C154.262 124.042 154.181 123.741 154.181 123.386C154.181 122.957 154.302 122.581 154.545 122.259C154.787 121.932 155.123 121.68 155.553 121.503C155.982 121.321 156.481 121.23 157.051 121.23C157.62 121.23 158.129 121.323 158.577 121.51C159.029 121.692 159.393 121.949 159.669 122.28C159.944 122.611 160.107 122.996 160.159 123.435L159.109 123.624C159.039 123.181 158.817 122.831 158.444 122.574C158.075 122.313 157.606 122.177 157.037 122.168C156.5 122.154 156.064 122.257 155.728 122.476C155.392 122.691 155.224 122.978 155.224 123.337C155.224 123.538 155.284 123.71 155.406 123.855C155.527 123.995 155.746 124.128 156.064 124.254C156.386 124.38 156.843 124.518 157.436 124.667C158.131 124.844 158.677 125.031 159.074 125.227C159.47 125.423 159.753 125.654 159.921 125.92C160.089 126.186 160.173 126.515 160.173 126.907C160.173 127.621 159.907 128.183 159.375 128.594C158.847 129 158.119 129.203 157.191 129.203ZM164.882 129.21C164.131 129.21 163.489 129.04 162.957 128.699C162.425 128.358 162.017 127.887 161.732 127.285C161.447 126.683 161.305 125.992 161.305 125.213C161.305 124.42 161.45 123.724 161.739 123.127C162.028 122.53 162.439 122.065 162.971 121.734C163.508 121.398 164.145 121.23 164.882 121.23C165.638 121.23 166.282 121.4 166.814 121.741C167.351 122.077 167.759 122.546 168.039 123.148C168.324 123.745 168.466 124.434 168.466 125.213C168.466 126.006 168.324 126.704 168.039 127.306C167.754 127.903 167.344 128.37 166.807 128.706C166.27 129.042 165.629 129.21 164.882 129.21ZM164.882 128.223C165.722 128.223 166.347 127.945 166.758 127.39C167.169 126.83 167.374 126.104 167.374 125.213C167.374 124.298 167.166 123.57 166.751 123.029C166.34 122.488 165.717 122.217 164.882 122.217C164.317 122.217 163.851 122.345 163.482 122.602C163.118 122.854 162.845 123.206 162.663 123.659C162.486 124.107 162.397 124.625 162.397 125.213C162.397 126.123 162.607 126.853 163.027 127.404C163.447 127.95 164.065 128.223 164.882 128.223ZM172.901 129.189C172.449 129.189 172.052 129.119 171.711 128.979C171.375 128.839 171.088 128.65 170.85 128.412C170.617 128.174 170.428 127.903 170.283 127.6C170.139 127.292 170.034 126.968 169.968 126.627C169.903 126.282 169.87 125.939 169.87 125.598V121.44H170.906V125.297C170.906 125.712 170.946 126.097 171.025 126.452C171.105 126.807 171.231 127.117 171.403 127.383C171.581 127.644 171.807 127.847 172.082 127.992C172.362 128.137 172.701 128.209 173.097 128.209C173.461 128.209 173.781 128.146 174.056 128.02C174.336 127.894 174.57 127.714 174.756 127.481C174.948 127.243 175.092 126.956 175.19 126.62C175.288 126.279 175.337 125.897 175.337 125.472L176.065 125.633C176.065 126.408 175.93 127.059 175.659 127.586C175.389 128.113 175.015 128.512 174.539 128.783C174.063 129.054 173.517 129.189 172.901 129.189ZM175.442 129V127.138H175.337V121.44H176.366V129H175.442ZM181.144 129.203C180.257 129.203 179.527 129.012 178.953 128.629C178.383 128.246 178.033 127.714 177.903 127.033L178.953 126.858C179.065 127.287 179.319 127.63 179.716 127.887C180.117 128.139 180.612 128.265 181.2 128.265C181.774 128.265 182.226 128.146 182.558 127.908C182.889 127.665 183.055 127.336 183.055 126.921C183.055 126.688 183.001 126.499 182.894 126.354C182.791 126.205 182.579 126.067 182.257 125.941C181.935 125.815 181.454 125.666 180.815 125.493C180.129 125.306 179.592 125.12 179.205 124.933C178.817 124.746 178.542 124.532 178.379 124.289C178.215 124.042 178.134 123.741 178.134 123.386C178.134 122.957 178.255 122.581 178.498 122.259C178.74 121.932 179.076 121.68 179.506 121.503C179.935 121.321 180.434 121.23 181.004 121.23C181.573 121.23 182.082 121.323 182.53 121.51C182.982 121.692 183.346 121.949 183.622 122.28C183.897 122.611 184.06 122.996 184.112 123.435L183.062 123.624C182.992 123.181 182.77 122.831 182.397 122.574C182.028 122.313 181.559 122.177 180.99 122.168C180.453 122.154 180.017 122.257 179.681 122.476C179.345 122.691 179.177 122.978 179.177 123.337C179.177 123.538 179.237 123.71 179.359 123.855C179.48 123.995 179.699 124.128 180.017 124.254C180.339 124.38 180.796 124.518 181.389 124.667C182.084 124.844 182.63 125.031 183.027 125.227C183.423 125.423 183.706 125.654 183.874 125.92C184.042 126.186 184.126 126.515 184.126 126.907C184.126 127.621 183.86 128.183 183.328 128.594C182.8 129 182.072 129.203 181.144 129.203ZM191.876 129.21C191.181 129.21 190.593 129.035 190.112 128.685C189.631 128.33 189.267 127.852 189.02 127.25C188.773 126.643 188.649 125.964 188.649 125.213C188.649 124.448 188.773 123.766 189.02 123.169C189.272 122.567 189.641 122.093 190.126 121.748C190.611 121.403 191.209 121.23 191.918 121.23C192.609 121.23 193.201 121.405 193.696 121.755C194.191 122.105 194.569 122.581 194.83 123.183C195.096 123.785 195.229 124.462 195.229 125.213C195.229 125.969 195.096 126.648 194.83 127.25C194.564 127.852 194.181 128.33 193.682 128.685C193.183 129.035 192.581 129.21 191.876 129.21ZM188.474 132.36V121.44H189.398V127.131H189.51V132.36H188.474ZM191.771 128.251C192.298 128.251 192.737 128.118 193.087 127.852C193.437 127.586 193.698 127.224 193.871 126.767C194.048 126.305 194.137 125.787 194.137 125.213C194.137 124.644 194.051 124.13 193.878 123.673C193.705 123.216 193.442 122.854 193.087 122.588C192.737 122.322 192.291 122.189 191.75 122.189C191.223 122.189 190.784 122.317 190.434 122.574C190.089 122.831 189.83 123.188 189.657 123.645C189.484 124.098 189.398 124.62 189.398 125.213C189.398 125.796 189.484 126.319 189.657 126.781C189.83 127.238 190.091 127.598 190.441 127.859C190.791 128.12 191.234 128.251 191.771 128.251ZM199.965 129.21C199.228 129.21 198.588 129.047 198.047 128.72C197.51 128.393 197.093 127.934 196.794 127.341C196.495 126.748 196.346 126.053 196.346 125.255C196.346 124.429 196.493 123.715 196.787 123.113C197.081 122.511 197.494 122.047 198.026 121.72C198.563 121.393 199.195 121.23 199.923 121.23C200.67 121.23 201.307 121.403 201.834 121.748C202.361 122.089 202.76 122.579 203.031 123.218C203.302 123.857 203.425 124.62 203.402 125.507H202.352V125.143C202.333 124.163 202.121 123.423 201.715 122.924C201.314 122.425 200.726 122.175 199.951 122.175C199.139 122.175 198.516 122.439 198.082 122.966C197.653 123.493 197.438 124.245 197.438 125.22C197.438 126.172 197.653 126.912 198.082 127.439C198.516 127.962 199.13 128.223 199.923 128.223C200.464 128.223 200.936 128.099 201.337 127.852C201.743 127.6 202.063 127.238 202.296 126.767L203.255 127.138C202.956 127.796 202.515 128.307 201.932 128.671C201.353 129.03 200.698 129.21 199.965 129.21ZM197.074 125.507V124.646H202.849V125.507H197.074ZM207.847 129.189C207.394 129.189 206.997 129.119 206.657 128.979C206.321 128.839 206.034 128.65 205.796 128.412C205.562 128.174 205.373 127.903 205.229 127.6C205.084 127.292 204.979 126.968 204.914 126.627C204.848 126.282 204.816 125.939 204.816 125.598V121.44H205.852V125.297C205.852 125.712 205.891 126.097 205.971 126.452C206.05 126.807 206.176 127.117 206.349 127.383C206.526 127.644 206.752 127.847 207.028 127.992C207.308 128.137 207.646 128.209 208.043 128.209C208.407 128.209 208.726 128.146 209.002 128.02C209.282 127.894 209.515 127.714 209.702 127.481C209.893 127.243 210.038 126.956 210.136 126.62C210.234 126.279 210.283 125.897 210.283 125.472L211.011 125.633C211.011 126.408 210.875 127.059 210.605 127.586C210.334 128.113 209.961 128.512 209.485 128.783C209.009 129.054 208.463 129.189 207.847 129.189ZM210.388 129V127.138H210.283V121.44H211.312V129H210.388Z" fill="black"/>
</g>
</svg>
