<svg width="285" height="134" viewBox="0 0 285 134" fill="none" xmlns="http://www.w3.org/2000/svg">
<g id="Frame 687">
<rect width="285" height="134" rx="8" fill="white"/>
<g id="icon-park-solid:success">
<g id="Mask group">
<mask id="mask0_830_10631" style="mask-type:luminance" maskUnits="userSpaceOnUse" x="122" y="23" width="41" height="42">
<g id="Group">
<g id="Group_2">
<path id="Vector" d="M142.5 24L147.753 27.832L154.256 27.82L156.253 34.008L161.521 37.82L159.5 44L161.521 50.18L156.253 53.992L154.256 60.18L147.753 60.168L142.5 64L137.247 60.168L130.744 60.18L128.747 53.992L123.479 50.18L125.5 44L123.479 37.82L128.747 34.008L130.744 27.82L137.247 27.832L142.5 24Z" fill="white" stroke="white" stroke-width="2" stroke-linecap="round" stroke-linejoin="round"/>
<path id="Vector_2" d="M135.5 44L140.5 49L150.5 39" stroke="black" stroke-width="2" stroke-linecap="round" stroke-linejoin="round"/>
</g>
</g>
</mask>
<g mask="url(#mask0_830_10631)">
<path id="Vector_3" d="M118.5 20H166.5V68H118.5V20Z" fill="#4CC266"/>
</g>
</g>
</g>
<path id="Vous venez d&#226;&#128;&#153;accepter la mission #78214" d="M40.584 91L37.112 80.92H38.183L41.256 89.831L44.35 80.92H45.421L41.949 91H40.584ZM48.7942 91.21C48.0429 91.21 47.4012 91.0397 46.8692 90.699C46.3372 90.3583 45.9289 89.887 45.6442 89.285C45.3596 88.683 45.2172 87.9923 45.2172 87.213C45.2172 86.4197 45.3619 85.7243 45.6512 85.127C45.9406 84.5297 46.3512 84.0653 46.8832 83.734C47.4199 83.398 48.0569 83.23 48.7942 83.23C49.5502 83.23 50.1942 83.4003 50.7262 83.741C51.2629 84.077 51.6712 84.546 51.9512 85.148C52.2359 85.7453 52.3782 86.4337 52.3782 87.213C52.3782 88.0063 52.2359 88.704 51.9512 89.306C51.6666 89.9033 51.2559 90.37 50.7192 90.706C50.1826 91.042 49.5409 91.21 48.7942 91.21ZM48.7942 90.223C49.6342 90.223 50.2596 89.9453 50.6702 89.39C51.0809 88.83 51.2862 88.1043 51.2862 87.213C51.2862 86.2983 51.0786 85.5703 50.6632 85.029C50.2526 84.4877 49.6296 84.217 48.7942 84.217C48.2296 84.217 47.7629 84.3453 47.3942 84.602C47.0302 84.854 46.7572 85.2063 46.5752 85.659C46.3979 86.107 46.3092 86.625 46.3092 87.213C46.3092 88.123 46.5192 88.8533 46.9392 89.404C47.3592 89.95 47.9776 90.223 48.7942 90.223ZM56.8134 91.189C56.3607 91.189 55.964 91.119 55.6234 90.979C55.2874 90.839 55.0004 90.65 54.7624 90.412C54.529 90.174 54.34 89.9033 54.1954 89.6C54.0507 89.292 53.9457 88.9677 53.8804 88.627C53.815 88.2817 53.7824 87.9387 53.7824 87.598V83.44H54.8184V87.297C54.8184 87.7123 54.858 88.0973 54.9374 88.452C55.0167 88.8067 55.1427 89.117 55.3154 89.383C55.4927 89.6443 55.719 89.8473 55.9944 89.992C56.2744 90.1367 56.6127 90.209 57.0094 90.209C57.3734 90.209 57.693 90.146 57.9684 90.02C58.2484 89.894 58.4817 89.7143 58.6684 89.481C58.8597 89.243 59.0044 88.956 59.1024 88.62C59.2004 88.2793 59.2494 87.8967 59.2494 87.472L59.9774 87.633C59.9774 88.4077 59.842 89.0587 59.5714 89.586C59.3007 90.1133 58.9274 90.5123 58.4514 90.783C57.9754 91.0537 57.4294 91.189 56.8134 91.189ZM59.3544 91V89.138H59.2494V83.44H60.2784V91H59.3544ZM65.0559 91.203C64.1692 91.203 63.4389 91.0117 62.8649 90.629C62.2955 90.2463 61.9455 89.7143 61.8149 89.033L62.8649 88.858C62.9769 89.2873 63.2312 89.6303 63.6279 89.887C64.0292 90.139 64.5239 90.265 65.1119 90.265C65.6859 90.265 66.1385 90.146 66.4699 89.908C66.8012 89.6653 66.9669 89.3363 66.9669 88.921C66.9669 88.6877 66.9132 88.4987 66.8059 88.354C66.7032 88.2047 66.4909 88.067 66.1689 87.941C65.8469 87.815 65.3662 87.6657 64.7269 87.493C64.0409 87.3063 63.5042 87.1197 63.1169 86.933C62.7295 86.7463 62.4542 86.5317 62.2909 86.289C62.1275 86.0417 62.0459 85.7407 62.0459 85.386C62.0459 84.9567 62.1672 84.581 62.4099 84.259C62.6525 83.9323 62.9885 83.6803 63.4179 83.503C63.8472 83.321 64.3465 83.23 64.9159 83.23C65.4852 83.23 65.9939 83.3233 66.4419 83.51C66.8945 83.692 67.2585 83.9487 67.5339 84.28C67.8092 84.6113 67.9725 84.9963 68.0239 85.435L66.9739 85.624C66.9039 85.1807 66.6822 84.8307 66.3089 84.574C65.9402 84.3127 65.4712 84.1773 64.9019 84.168C64.3652 84.154 63.9289 84.2567 63.5929 84.476C63.2569 84.6907 63.0889 84.9777 63.0889 85.337C63.0889 85.5377 63.1495 85.7103 63.2709 85.855C63.3922 85.995 63.6115 86.128 63.9289 86.254C64.2509 86.38 64.7082 86.5177 65.3009 86.667C65.9962 86.8443 66.5422 87.031 66.9389 87.227C67.3355 87.423 67.6179 87.654 67.7859 87.92C67.9539 88.186 68.0379 88.515 68.0379 88.907C68.0379 89.621 67.7719 90.1833 67.2399 90.594C66.7125 91 65.9845 91.203 65.0559 91.203ZM74.4371 91L71.6931 83.44H72.7361L74.9691 89.656L77.1881 83.44H78.2451L75.5011 91H74.4371ZM82.428 91.21C81.6907 91.21 81.0514 91.0467 80.51 90.72C79.9734 90.3933 79.5557 89.9337 79.257 89.341C78.9584 88.7483 78.809 88.053 78.809 87.255C78.809 86.429 78.956 85.715 79.25 85.113C79.544 84.511 79.957 84.0467 80.489 83.72C81.0257 83.3933 81.658 83.23 82.386 83.23C83.1327 83.23 83.7697 83.4027 84.297 83.748C84.8244 84.0887 85.2234 84.5787 85.494 85.218C85.7647 85.8573 85.8884 86.6203 85.865 87.507H84.815V87.143C84.7964 86.163 84.584 85.4233 84.178 84.924C83.7767 84.4247 83.1887 84.175 82.414 84.175C81.602 84.175 80.979 84.4387 80.545 84.966C80.1157 85.4933 79.901 86.2447 79.901 87.22C79.901 88.172 80.1157 88.9117 80.545 89.439C80.979 89.9617 81.5927 90.223 82.386 90.223C82.9274 90.223 83.3987 90.0993 83.8 89.852C84.206 89.6 84.5257 89.2383 84.759 88.767L85.718 89.138C85.4194 89.796 84.9784 90.307 84.395 90.671C83.8164 91.0303 83.1607 91.21 82.428 91.21ZM79.537 87.507V86.646H85.312V87.507H79.537ZM92.6734 91V87.143C92.6734 86.723 92.6337 86.338 92.5544 85.988C92.4751 85.6333 92.3467 85.3253 92.1694 85.064C91.9967 84.798 91.7704 84.5927 91.4904 84.448C91.2151 84.3033 90.8791 84.231 90.4824 84.231C90.1184 84.231 89.7964 84.294 89.5164 84.42C89.2411 84.546 89.0077 84.728 88.8164 84.966C88.6297 85.1993 88.4874 85.484 88.3894 85.82C88.2914 86.156 88.2424 86.5387 88.2424 86.968L87.5144 86.807C87.5144 86.0323 87.6497 85.3813 87.9204 84.854C88.1911 84.3267 88.5644 83.9277 89.0404 83.657C89.5164 83.3863 90.0624 83.251 90.6784 83.251C91.1311 83.251 91.5254 83.321 91.8614 83.461C92.2021 83.601 92.4891 83.79 92.7224 84.028C92.9604 84.266 93.1517 84.539 93.2964 84.847C93.4411 85.1503 93.5461 85.4747 93.6114 85.82C93.6767 86.1607 93.7094 86.5013 93.7094 86.842V91H92.6734ZM87.2064 91V83.44H88.1374V85.302H88.2424V91H87.2064ZM98.6839 91.21C97.9465 91.21 97.3072 91.0467 96.7659 90.72C96.2292 90.3933 95.8115 89.9337 95.5129 89.341C95.2142 88.7483 95.0649 88.053 95.0649 87.255C95.0649 86.429 95.2119 85.715 95.5059 85.113C95.7999 84.511 96.2129 84.0467 96.7449 83.72C97.2815 83.3933 97.9139 83.23 98.6419 83.23C99.3885 83.23 100.026 83.4027 100.553 83.748C101.08 84.0887 101.479 84.5787 101.75 85.218C102.021 85.8573 102.144 86.6203 102.121 87.507H101.071V87.143C101.052 86.163 100.84 85.4233 100.434 84.924C100.033 84.4247 99.4445 84.175 98.6699 84.175C97.8579 84.175 97.2349 84.4387 96.8009 84.966C96.3715 85.4933 96.1569 86.2447 96.1569 87.22C96.1569 88.172 96.3715 88.9117 96.8009 89.439C97.2349 89.9617 97.8485 90.223 98.6419 90.223C99.1832 90.223 99.6545 90.0993 100.056 89.852C100.462 89.6 100.782 89.2383 101.015 88.767L101.974 89.138C101.675 89.796 101.234 90.307 100.651 90.671C100.072 91.0303 99.4165 91.21 98.6839 91.21ZM95.7929 87.507V86.646H101.568V87.507H95.7929ZM102.974 91V90.783L107.853 84.399H103.338V83.44H109.547V83.678L104.675 90.041H109.281V91H102.974ZM116.82 91.21C116.116 91.21 115.514 91.035 115.014 90.685C114.515 90.3303 114.132 89.852 113.866 89.25C113.6 88.648 113.467 87.969 113.467 87.213C113.467 86.4617 113.598 85.785 113.859 85.183C114.125 84.581 114.506 84.105 115 83.755C115.495 83.405 116.088 83.23 116.778 83.23C117.488 83.23 118.085 83.4027 118.57 83.748C119.056 84.0933 119.422 84.567 119.669 85.169C119.921 85.7663 120.047 86.4477 120.047 87.213C120.047 87.9643 119.924 88.6433 119.676 89.25C119.429 89.852 119.065 90.3303 118.584 90.685C118.104 91.035 117.516 91.21 116.82 91.21ZM116.925 90.251C117.462 90.251 117.905 90.1203 118.255 89.859C118.605 89.5977 118.867 89.2383 119.039 88.781C119.212 88.319 119.298 87.7963 119.298 87.213C119.298 86.6203 119.212 86.0977 119.039 85.645C118.867 85.1877 118.605 84.8307 118.255 84.574C117.91 84.3173 117.474 84.189 116.946 84.189C116.405 84.189 115.957 84.322 115.602 84.588C115.248 84.854 114.984 85.2157 114.811 85.673C114.643 86.1303 114.559 86.6437 114.559 87.213C114.559 87.787 114.646 88.305 114.818 88.767C114.996 89.2243 115.259 89.586 115.609 89.852C115.959 90.118 116.398 90.251 116.925 90.251ZM119.298 91V85.309H119.186V80.92H120.222V91H119.298ZM122.186 83.86L122.249 83.349C122.436 83.363 122.571 83.3257 122.655 83.237C122.739 83.1483 122.79 83.0293 122.809 82.88C122.828 82.7307 122.832 82.5697 122.823 82.397H122.186V80.92H123.383V82.677C123.383 83.1063 123.273 83.4283 123.054 83.643C122.839 83.8577 122.55 83.93 122.186 83.86ZM127.029 91.21C126.459 91.21 125.981 91.1073 125.594 90.902C125.211 90.6967 124.924 90.4237 124.733 90.083C124.541 89.7423 124.446 89.3713 124.446 88.97C124.446 88.5593 124.527 88.2093 124.691 87.92C124.859 87.626 125.085 87.3857 125.37 87.199C125.659 87.0123 125.993 86.87 126.371 86.772C126.753 86.6787 127.176 86.597 127.638 86.527C128.104 86.4523 128.559 86.3893 129.003 86.338C129.451 86.282 129.843 86.2283 130.179 86.177L129.815 86.401C129.829 85.6543 129.684 85.1013 129.381 84.742C129.077 84.3827 128.55 84.203 127.799 84.203C127.281 84.203 126.842 84.3197 126.483 84.553C126.128 84.7863 125.878 85.155 125.734 85.659L124.733 85.365C124.905 84.6883 125.253 84.1633 125.776 83.79C126.298 83.4167 126.977 83.23 127.813 83.23C128.503 83.23 129.089 83.3607 129.57 83.622C130.055 83.8787 130.398 84.252 130.599 84.742C130.692 84.9613 130.753 85.2063 130.781 85.477C130.809 85.7477 130.823 86.023 130.823 86.303V91H129.906V89.103L130.172 89.215C129.915 89.8637 129.516 90.3583 128.975 90.699C128.433 91.0397 127.785 91.21 127.029 91.21ZM127.148 90.321C127.628 90.321 128.048 90.2347 128.408 90.062C128.767 89.8893 129.056 89.6537 129.276 89.355C129.495 89.0517 129.637 88.711 129.703 88.333C129.759 88.0903 129.789 87.8243 129.794 87.535C129.798 87.241 129.801 87.0217 129.801 86.877L130.193 87.08C129.843 87.1267 129.462 87.1733 129.052 87.22C128.646 87.2667 128.244 87.3203 127.848 87.381C127.456 87.4417 127.101 87.514 126.784 87.598C126.569 87.6587 126.361 87.745 126.161 87.857C125.96 87.9643 125.794 88.109 125.664 88.291C125.538 88.473 125.475 88.6993 125.475 88.97C125.475 89.1893 125.528 89.4017 125.636 89.607C125.748 89.8123 125.925 89.9827 126.168 90.118C126.415 90.2533 126.742 90.321 127.148 90.321ZM135.781 91.21C135.02 91.21 134.376 91.0397 133.849 90.699C133.322 90.3583 132.92 89.8893 132.645 89.292C132.374 88.69 132.234 87.9993 132.225 87.22C132.234 86.4267 132.379 85.7313 132.659 85.134C132.939 84.532 133.343 84.0653 133.87 83.734C134.397 83.398 135.037 83.23 135.788 83.23C136.553 83.23 137.218 83.4167 137.783 83.79C138.352 84.1633 138.742 84.6743 138.952 85.323L137.944 85.645C137.767 85.1923 137.484 84.8423 137.097 84.595C136.714 84.343 136.276 84.217 135.781 84.217C135.226 84.217 134.766 84.3453 134.402 84.602C134.038 84.854 133.767 85.2063 133.59 85.659C133.413 86.1117 133.322 86.632 133.317 87.22C133.326 88.1253 133.536 88.8533 133.947 89.404C134.358 89.95 134.969 90.223 135.781 90.223C136.294 90.223 136.731 90.1063 137.09 89.873C137.454 89.635 137.729 89.2897 137.916 88.837L138.952 89.145C138.672 89.817 138.261 90.3303 137.72 90.685C137.179 91.035 136.532 91.21 135.781 91.21ZM143.328 91.21C142.567 91.21 141.923 91.0397 141.396 90.699C140.869 90.3583 140.467 89.8893 140.192 89.292C139.921 88.69 139.781 87.9993 139.772 87.22C139.781 86.4267 139.926 85.7313 140.206 85.134C140.486 84.532 140.89 84.0653 141.417 83.734C141.944 83.398 142.584 83.23 143.335 83.23C144.1 83.23 144.765 83.4167 145.33 83.79C145.899 84.1633 146.289 84.6743 146.499 85.323L145.491 85.645C145.314 85.1923 145.031 84.8423 144.644 84.595C144.261 84.343 143.823 84.217 143.328 84.217C142.773 84.217 142.313 84.3453 141.949 84.602C141.585 84.854 141.314 85.2063 141.137 85.659C140.96 86.1117 140.869 86.632 140.864 87.22C140.873 88.1253 141.083 88.8533 141.494 89.404C141.905 89.95 142.516 90.223 143.328 90.223C143.841 90.223 144.278 90.1063 144.637 89.873C145.001 89.635 145.276 89.2897 145.463 88.837L146.499 89.145C146.219 89.817 145.808 90.3303 145.267 90.685C144.726 91.035 144.079 91.21 143.328 91.21ZM150.938 91.21C150.2 91.21 149.561 91.0467 149.02 90.72C148.483 90.3933 148.065 89.9337 147.767 89.341C147.468 88.7483 147.319 88.053 147.319 87.255C147.319 86.429 147.466 85.715 147.76 85.113C148.054 84.511 148.467 84.0467 148.999 83.72C149.535 83.3933 150.168 83.23 150.896 83.23C151.642 83.23 152.279 83.4027 152.807 83.748C153.334 84.0887 153.733 84.5787 154.004 85.218C154.274 85.8573 154.398 86.6203 154.375 87.507H153.325V87.143C153.306 86.163 153.094 85.4233 152.688 84.924C152.286 84.4247 151.698 84.175 150.924 84.175C150.112 84.175 149.489 84.4387 149.055 84.966C148.625 85.4933 148.411 86.2447 148.411 87.22C148.411 88.172 148.625 88.9117 149.055 89.439C149.489 89.9617 150.102 90.223 150.896 90.223C151.437 90.223 151.908 90.0993 152.31 89.852C152.716 89.6 153.035 89.2383 153.269 88.767L154.228 89.138C153.929 89.796 153.488 90.307 152.905 90.671C152.326 91.0303 151.67 91.21 150.938 91.21ZM148.047 87.507V86.646H153.822V87.507H148.047ZM159.118 91.21C158.423 91.21 157.835 91.035 157.354 90.685C156.873 90.3303 156.509 89.852 156.262 89.25C156.015 88.6433 155.891 87.9643 155.891 87.213C155.891 86.4477 156.015 85.7663 156.262 85.169C156.514 84.567 156.883 84.0933 157.368 83.748C157.853 83.4027 158.451 83.23 159.16 83.23C159.851 83.23 160.443 83.405 160.938 83.755C161.433 84.105 161.811 84.581 162.072 85.183C162.338 85.785 162.471 86.4617 162.471 87.213C162.471 87.969 162.338 88.648 162.072 89.25C161.806 89.852 161.423 90.3303 160.924 90.685C160.425 91.035 159.823 91.21 159.118 91.21ZM155.716 94.36V83.44H156.64V89.131H156.752V94.36H155.716ZM159.013 90.251C159.54 90.251 159.979 90.118 160.329 89.852C160.679 89.586 160.94 89.2243 161.113 88.767C161.29 88.305 161.379 87.787 161.379 87.213C161.379 86.6437 161.293 86.1303 161.12 85.673C160.947 85.2157 160.684 84.854 160.329 84.588C159.979 84.322 159.533 84.189 158.992 84.189C158.465 84.189 158.026 84.3173 157.676 84.574C157.331 84.8307 157.072 85.1877 156.899 85.645C156.726 86.0977 156.64 86.6203 156.64 87.213C156.64 87.7963 156.726 88.319 156.899 88.781C157.072 89.2383 157.333 89.5977 157.683 89.859C158.033 90.1203 158.476 90.251 159.013 90.251ZM168.124 91C167.7 91.0887 167.28 91.1237 166.864 91.105C166.454 91.0863 166.085 90.9977 165.758 90.839C165.436 90.6803 165.191 90.433 165.023 90.097C164.888 89.817 164.813 89.5347 164.799 89.25C164.79 88.9607 164.785 88.6317 164.785 88.263V81.34H165.807V88.221C165.807 88.5383 165.81 88.8043 165.814 89.019C165.824 89.229 165.873 89.4157 165.961 89.579C166.129 89.8917 166.395 90.0783 166.759 90.139C167.128 90.1997 167.583 90.1857 168.124 90.097V91ZM163.168 84.322V83.44H168.124V84.322H163.168ZM172.539 91.21C171.802 91.21 171.163 91.0467 170.621 90.72C170.085 90.3933 169.667 89.9337 169.368 89.341C169.07 88.7483 168.92 88.053 168.92 87.255C168.92 86.429 169.067 85.715 169.361 85.113C169.655 84.511 170.068 84.0467 170.6 83.72C171.137 83.3933 171.769 83.23 172.497 83.23C173.244 83.23 173.881 83.4027 174.408 83.748C174.936 84.0887 175.335 84.5787 175.605 85.218C175.876 85.8573 176 86.6203 175.976 87.507H174.926V87.143C174.908 86.163 174.695 85.4233 174.289 84.924C173.888 84.4247 173.3 84.175 172.525 84.175C171.713 84.175 171.09 84.4387 170.656 84.966C170.227 85.4933 170.012 86.2447 170.012 87.22C170.012 88.172 170.227 88.9117 170.656 89.439C171.09 89.9617 171.704 90.223 172.497 90.223C173.039 90.223 173.51 90.0993 173.911 89.852C174.317 89.6 174.637 89.2383 174.87 88.767L175.829 89.138C175.531 89.796 175.09 90.307 174.506 90.671C173.928 91.0303 173.272 91.21 172.539 91.21ZM169.648 87.507V86.646H175.423V87.507H169.648ZM177.53 91V83.44H178.454V85.26L178.272 85.022C178.356 84.798 178.465 84.5927 178.601 84.406C178.736 84.2147 178.883 84.0583 179.042 83.937C179.238 83.7643 179.466 83.6337 179.728 83.545C179.989 83.4517 180.253 83.398 180.519 83.384C180.785 83.3653 181.027 83.384 181.247 83.44V84.406C180.971 84.336 180.67 84.3197 180.344 84.357C180.017 84.3943 179.716 84.525 179.441 84.749C179.189 84.945 179 85.1807 178.874 85.456C178.748 85.7267 178.664 86.016 178.622 86.324C178.58 86.6273 178.559 86.9283 178.559 87.227V91H177.53ZM185.517 91V80.71H186.546V91H185.517ZM190.808 91.21C190.239 91.21 189.76 91.1073 189.373 90.902C188.99 90.6967 188.703 90.4237 188.512 90.083C188.321 89.7423 188.225 89.3713 188.225 88.97C188.225 88.5593 188.307 88.2093 188.47 87.92C188.638 87.626 188.864 87.3857 189.149 87.199C189.438 87.0123 189.772 86.87 190.15 86.772C190.533 86.6787 190.955 86.597 191.417 86.527C191.884 86.4523 192.339 86.3893 192.782 86.338C193.23 86.282 193.622 86.2283 193.958 86.177L193.594 86.401C193.608 85.6543 193.463 85.1013 193.16 84.742C192.857 84.3827 192.329 84.203 191.578 84.203C191.06 84.203 190.621 84.3197 190.262 84.553C189.907 84.7863 189.658 85.155 189.513 85.659L188.512 85.365C188.685 84.6883 189.032 84.1633 189.555 83.79C190.078 83.4167 190.757 83.23 191.592 83.23C192.283 83.23 192.868 83.3607 193.349 83.622C193.834 83.8787 194.177 84.252 194.378 84.742C194.471 84.9613 194.532 85.2063 194.56 85.477C194.588 85.7477 194.602 86.023 194.602 86.303V91H193.685V89.103L193.951 89.215C193.694 89.8637 193.295 90.3583 192.754 90.699C192.213 91.0397 191.564 91.21 190.808 91.21ZM190.927 90.321C191.408 90.321 191.828 90.2347 192.187 90.062C192.546 89.8893 192.836 89.6537 193.055 89.355C193.274 89.0517 193.417 88.711 193.482 88.333C193.538 88.0903 193.568 87.8243 193.573 87.535C193.578 87.241 193.58 87.0217 193.58 86.877L193.972 87.08C193.622 87.1267 193.242 87.1733 192.831 87.22C192.425 87.2667 192.024 87.3203 191.627 87.381C191.235 87.4417 190.88 87.514 190.563 87.598C190.348 87.6587 190.141 87.745 189.94 87.857C189.739 87.9643 189.574 88.109 189.443 88.291C189.317 88.473 189.254 88.6993 189.254 88.97C189.254 89.1893 189.308 89.4017 189.415 89.607C189.527 89.8123 189.704 89.9827 189.947 90.118C190.194 90.2533 190.521 90.321 190.927 90.321ZM208.243 91L208.25 86.037C208.25 85.4537 208.087 84.9963 207.76 84.665C207.438 84.329 207.027 84.161 206.528 84.161C206.243 84.161 205.966 84.2263 205.695 84.357C205.424 84.4877 205.2 84.6977 205.023 84.987C204.85 85.2763 204.764 85.6543 204.764 86.121L204.155 85.946C204.141 85.4047 204.246 84.931 204.47 84.525C204.699 84.119 205.011 83.804 205.408 83.58C205.809 83.3513 206.262 83.237 206.766 83.237C207.527 83.237 208.136 83.4727 208.593 83.944C209.05 84.4107 209.279 85.043 209.279 85.841L209.272 91H208.243ZM199.22 91V83.44H200.144V85.302H200.256V91H199.22ZM203.742 91L203.749 86.107C203.749 85.505 203.588 85.0313 203.266 84.686C202.949 84.336 202.529 84.161 202.006 84.161C201.483 84.161 201.061 84.3407 200.739 84.7C200.417 85.0547 200.256 85.5283 200.256 86.121L199.64 85.785C199.64 85.2997 199.754 84.8657 199.983 84.483C200.212 84.0957 200.524 83.7923 200.921 83.573C201.318 83.349 201.768 83.237 202.272 83.237C202.753 83.237 203.18 83.3397 203.553 83.545C203.931 83.7503 204.227 84.049 204.442 84.441C204.657 84.833 204.764 85.309 204.764 85.869L204.757 91H203.742ZM211.234 82.005V80.85H212.263V82.005H211.234ZM211.234 91V83.44H212.263V91H211.234ZM217.183 91.203C216.296 91.203 215.566 91.0117 214.992 90.629C214.423 90.2463 214.073 89.7143 213.942 89.033L214.992 88.858C215.104 89.2873 215.358 89.6303 215.755 89.887C216.156 90.139 216.651 90.265 217.239 90.265C217.813 90.265 218.266 90.146 218.597 89.908C218.928 89.6653 219.094 89.3363 219.094 88.921C219.094 88.6877 219.04 88.4987 218.933 88.354C218.83 88.2047 218.618 88.067 218.296 87.941C217.974 87.815 217.493 87.6657 216.854 87.493C216.168 87.3063 215.631 87.1197 215.244 86.933C214.857 86.7463 214.581 86.5317 214.418 86.289C214.255 86.0417 214.173 85.7407 214.173 85.386C214.173 84.9567 214.294 84.581 214.537 84.259C214.78 83.9323 215.116 83.6803 215.545 83.503C215.974 83.321 216.474 83.23 217.043 83.23C217.612 83.23 218.121 83.3233 218.569 83.51C219.022 83.692 219.386 83.9487 219.661 84.28C219.936 84.6113 220.1 84.9963 220.151 85.435L219.101 85.624C219.031 85.1807 218.809 84.8307 218.436 84.574C218.067 84.3127 217.598 84.1773 217.029 84.168C216.492 84.154 216.056 84.2567 215.72 84.476C215.384 84.6907 215.216 84.9777 215.216 85.337C215.216 85.5377 215.277 85.7103 215.398 85.855C215.519 85.995 215.739 86.128 216.056 86.254C216.378 86.38 216.835 86.5177 217.428 86.667C218.123 86.8443 218.669 87.031 219.066 87.227C219.463 87.423 219.745 87.654 219.913 87.92C220.081 88.186 220.165 88.515 220.165 88.907C220.165 89.621 219.899 90.1833 219.367 90.594C218.84 91 218.112 91.203 217.183 91.203ZM224.538 91.203C223.652 91.203 222.921 91.0117 222.347 90.629C221.778 90.2463 221.428 89.7143 221.297 89.033L222.347 88.858C222.459 89.2873 222.714 89.6303 223.11 89.887C223.512 90.139 224.006 90.265 224.594 90.265C225.168 90.265 225.621 90.146 225.952 89.908C226.284 89.6653 226.449 89.3363 226.449 88.921C226.449 88.6877 226.396 88.4987 226.288 88.354C226.186 88.2047 225.973 88.067 225.651 87.941C225.329 87.815 224.849 87.6657 224.209 87.493C223.523 87.3063 222.987 87.1197 222.599 86.933C222.212 86.7463 221.937 86.5317 221.773 86.289C221.61 86.0417 221.528 85.7407 221.528 85.386C221.528 84.9567 221.65 84.581 221.892 84.259C222.135 83.9323 222.471 83.6803 222.9 83.503C223.33 83.321 223.829 83.23 224.398 83.23C224.968 83.23 225.476 83.3233 225.924 83.51C226.377 83.692 226.741 83.9487 227.016 84.28C227.292 84.6113 227.455 84.9963 227.506 85.435L226.456 85.624C226.386 85.1807 226.165 84.8307 225.791 84.574C225.423 84.3127 224.954 84.1773 224.384 84.168C223.848 84.154 223.411 84.2567 223.075 84.476C222.739 84.6907 222.571 84.9777 222.571 85.337C222.571 85.5377 222.632 85.7103 222.753 85.855C222.875 85.995 223.094 86.128 223.411 86.254C223.733 86.38 224.191 86.5177 224.783 86.667C225.479 86.8443 226.025 87.031 226.421 87.227C226.818 87.423 227.1 87.654 227.268 87.92C227.436 88.186 227.52 88.515 227.52 88.907C227.52 89.621 227.254 90.1833 226.722 90.594C226.195 91 225.467 91.203 224.538 91.203ZM229.213 82.005V80.85H230.242V82.005H229.213ZM229.213 91V83.44H230.242V91H229.213ZM235.497 91.21C234.746 91.21 234.104 91.0397 233.572 90.699C233.04 90.3583 232.632 89.887 232.347 89.285C232.063 88.683 231.92 87.9923 231.92 87.213C231.92 86.4197 232.065 85.7243 232.354 85.127C232.644 84.5297 233.054 84.0653 233.586 83.734C234.123 83.398 234.76 83.23 235.497 83.23C236.253 83.23 236.897 83.4003 237.429 83.741C237.966 84.077 238.374 84.546 238.654 85.148C238.939 85.7453 239.081 86.4337 239.081 87.213C239.081 88.0063 238.939 88.704 238.654 89.306C238.37 89.9033 237.959 90.37 237.422 90.706C236.886 91.042 236.244 91.21 235.497 91.21ZM235.497 90.223C236.337 90.223 236.963 89.9453 237.373 89.39C237.784 88.83 237.989 88.1043 237.989 87.213C237.989 86.2983 237.782 85.5703 237.366 85.029C236.956 84.4877 236.333 84.217 235.497 84.217C234.933 84.217 234.466 84.3453 234.097 84.602C233.733 84.854 233.46 85.2063 233.278 85.659C233.101 86.107 233.012 86.625 233.012 87.213C233.012 88.123 233.222 88.8533 233.642 89.404C234.062 89.95 234.681 90.223 235.497 90.223ZM246.086 91V87.143C246.086 86.723 246.046 86.338 245.967 85.988C245.887 85.6333 245.759 85.3253 245.582 85.064C245.409 84.798 245.183 84.5927 244.903 84.448C244.627 84.3033 244.291 84.231 243.895 84.231C243.531 84.231 243.209 84.294 242.929 84.42C242.653 84.546 242.42 84.728 242.229 84.966C242.042 85.1993 241.9 85.484 241.802 85.82C241.704 86.156 241.655 86.5387 241.655 86.968L240.927 86.807C240.927 86.0323 241.062 85.3813 241.333 84.854C241.603 84.3267 241.977 83.9277 242.453 83.657C242.929 83.3863 243.475 83.251 244.091 83.251C244.543 83.251 244.938 83.321 245.274 83.461C245.614 83.601 245.901 83.79 246.135 84.028C246.373 84.266 246.564 84.539 246.709 84.847C246.853 85.1503 246.958 85.4747 247.024 85.82C247.089 86.1607 247.122 86.5013 247.122 86.842V91H246.086ZM240.619 91V83.44H241.55V85.302H241.655V91H240.619ZM120.508 109.993L121.32 106.962H118.471L118.73 105.975H121.586L122.181 103.728H119.332L119.598 102.741H122.454L123.203 99.92H124.232L123.469 102.741H125.814L126.563 99.92H127.592L126.829 102.741H129.678L129.412 103.728H126.57L125.961 105.975H128.81L128.544 106.962H125.702L124.89 109.993H123.868L124.673 106.962H122.342L121.53 109.993H120.508ZM122.608 105.975H124.946L125.541 103.728H123.21L122.608 105.975ZM132.042 110L135.752 100.921H131.083V99.92H136.851V100.921L133.148 110H132.042ZM141.604 110.21C140.974 110.21 140.416 110.084 139.931 109.832C139.45 109.58 139.072 109.228 138.797 108.775C138.526 108.318 138.391 107.783 138.391 107.172C138.391 106.547 138.542 105.991 138.846 105.506C139.149 105.016 139.611 104.645 140.232 104.393L140.218 104.799C139.7 104.608 139.305 104.295 139.035 103.861C138.764 103.427 138.629 102.946 138.629 102.419C138.629 101.859 138.757 101.378 139.014 100.977C139.27 100.571 139.62 100.258 140.064 100.039C140.512 99.8197 141.025 99.71 141.604 99.71C142.182 99.71 142.696 99.8197 143.144 100.039C143.592 100.258 143.944 100.571 144.201 100.977C144.457 101.378 144.586 101.859 144.586 102.419C144.586 102.946 144.455 103.425 144.194 103.854C143.937 104.283 143.543 104.598 143.011 104.799L142.976 104.393C143.596 104.64 144.061 105.009 144.369 105.499C144.681 105.989 144.838 106.547 144.838 107.172C144.838 107.783 144.7 108.318 144.425 108.775C144.149 109.228 143.769 109.58 143.284 109.832C142.798 110.084 142.238 110.21 141.604 110.21ZM141.604 109.223C142.238 109.223 142.754 109.048 143.151 108.698C143.547 108.343 143.746 107.835 143.746 107.172C143.746 106.5 143.55 105.991 143.158 105.646C142.766 105.296 142.248 105.121 141.604 105.121C140.96 105.121 140.444 105.296 140.057 105.646C139.669 105.991 139.476 106.5 139.476 107.172C139.476 107.835 139.672 108.343 140.064 108.698C140.456 109.048 140.969 109.223 141.604 109.223ZM141.604 104.127C142.164 104.127 142.619 103.985 142.969 103.7C143.319 103.411 143.494 102.984 143.494 102.419C143.494 101.854 143.319 101.432 142.969 101.152C142.619 100.867 142.164 100.725 141.604 100.725C141.044 100.725 140.589 100.867 140.239 101.152C139.893 101.432 139.721 101.854 139.721 102.419C139.721 102.984 139.893 103.411 140.239 103.7C140.589 103.985 141.044 104.127 141.604 104.127ZM146.372 109.993L146.379 109.055L150.936 104.939C151.328 104.584 151.587 104.248 151.713 103.931C151.844 103.609 151.909 103.273 151.909 102.923C151.909 102.508 151.811 102.132 151.615 101.796C151.419 101.46 151.155 101.194 150.824 100.998C150.493 100.797 150.122 100.697 149.711 100.697C149.282 100.697 148.899 100.8 148.563 101.005C148.227 101.21 147.961 101.481 147.765 101.817C147.574 102.153 147.48 102.519 147.485 102.916H146.435C146.435 102.305 146.58 101.756 146.869 101.271C147.158 100.786 147.55 100.405 148.045 100.13C148.54 99.85 149.1 99.71 149.725 99.71C150.336 99.71 150.885 99.8547 151.37 100.144C151.86 100.429 152.245 100.816 152.525 101.306C152.81 101.791 152.952 102.333 152.952 102.93C152.952 103.35 152.901 103.721 152.798 104.043C152.7 104.36 152.544 104.657 152.329 104.932C152.119 105.203 151.851 105.483 151.524 105.772L147.478 109.426L147.317 109.006H152.952V109.993H146.372ZM156.393 110V101.068L154.496 102.209V101.054L156.393 99.92H157.436V110H156.393ZM164.529 110V108.047H159.811V107.067L163.185 99.92H164.34L160.966 107.067H164.529V104.127H165.565V107.067H166.664V108.047H165.565V110H164.529Z" fill="black"/>
</g>
</svg>
