<svg width="229" height="36" viewBox="0 0 229 36" fill="none" xmlns="http://www.w3.org/2000/svg">
<g id="Frame 374">
<g id="Frame 373">
<rect y="0.5" width="84" height="35" rx="8" fill="#E4E4E4"/>
<path id="Annuler" d="M16.28 23.5L19.654 13.42H21.39L24.764 23.5H23.469L20.312 14.148H20.704L17.575 23.5H16.28ZM17.904 21.141V19.972H23.14V21.141H17.904ZM31.4001 23.5V19.713C31.4001 19.3537 31.3674 19.0083 31.3021 18.677C31.2414 18.3457 31.1318 18.0493 30.9731 17.788C30.8191 17.522 30.6091 17.312 30.3431 17.158C30.0818 17.004 29.7504 16.927 29.3491 16.927C29.0364 16.927 28.7518 16.9807 28.4951 17.088C28.2431 17.1907 28.0261 17.3493 27.8441 17.564C27.6621 17.7787 27.5198 18.0493 27.4171 18.376C27.3191 18.698 27.2701 19.0783 27.2701 19.517L26.4511 19.265C26.4511 18.5323 26.5818 17.9047 26.8431 17.382C27.1091 16.8547 27.4801 16.451 27.9561 16.171C28.4368 15.8863 29.0014 15.744 29.6501 15.744C30.1401 15.744 30.5578 15.821 30.9031 15.975C31.2484 16.129 31.5354 16.3343 31.7641 16.591C31.9928 16.843 32.1724 17.1277 32.3031 17.445C32.4338 17.7577 32.5248 18.0773 32.5761 18.404C32.6321 18.726 32.6601 19.0317 32.6601 19.321V23.5H31.4001ZM26.0101 23.5V15.94H27.1301V17.963H27.2701V23.5H26.0101ZM39.863 23.5V19.713C39.863 19.3537 39.8303 19.0083 39.765 18.677C39.7043 18.3457 39.5947 18.0493 39.436 17.788C39.282 17.522 39.072 17.312 38.806 17.158C38.5447 17.004 38.2133 16.927 37.812 16.927C37.4993 16.927 37.2147 16.9807 36.958 17.088C36.706 17.1907 36.489 17.3493 36.307 17.564C36.125 17.7787 35.9827 18.0493 35.88 18.376C35.782 18.698 35.733 19.0783 35.733 19.517L34.914 19.265C34.914 18.5323 35.0447 17.9047 35.306 17.382C35.572 16.8547 35.943 16.451 36.419 16.171C36.8997 15.8863 37.4643 15.744 38.113 15.744C38.603 15.744 39.0207 15.821 39.366 15.975C39.7113 16.129 39.9983 16.3343 40.227 16.591C40.4557 16.843 40.6353 17.1277 40.766 17.445C40.8967 17.7577 40.9877 18.0773 41.039 18.404C41.095 18.726 41.123 19.0317 41.123 19.321V23.5H39.863ZM34.473 23.5V15.94H35.593V17.963H35.733V23.5H34.473ZM45.8129 23.696C45.3276 23.696 44.9099 23.619 44.5599 23.465C44.2146 23.311 43.9276 23.1057 43.6989 22.849C43.4702 22.5923 43.2906 22.3077 43.1599 21.995C43.0292 21.6823 42.9359 21.3627 42.8799 21.036C42.8286 20.7093 42.8029 20.4037 42.8029 20.119V15.94H44.0629V19.727C44.0629 20.0817 44.0956 20.4247 44.1609 20.756C44.2262 21.0873 44.3359 21.386 44.4899 21.652C44.6486 21.918 44.8586 22.128 45.1199 22.282C45.3859 22.436 45.7172 22.513 46.1139 22.513C46.4266 22.513 46.7112 22.4593 46.9679 22.352C47.2246 22.2447 47.4439 22.086 47.6259 21.876C47.8079 21.6613 47.9479 21.3907 48.0459 21.064C48.1439 20.7373 48.1929 20.357 48.1929 19.923L49.0119 20.175C49.0119 20.903 48.8789 21.5307 48.6129 22.058C48.3516 22.5853 47.9806 22.9913 47.4999 23.276C47.0239 23.556 46.4616 23.696 45.8129 23.696ZM48.3329 23.5V21.477H48.1929V15.94H49.4459V23.5H48.3329ZM51.5458 23.5V13.21H52.7918V23.5H51.5458ZM58.1681 23.71C57.4261 23.71 56.7774 23.5467 56.2221 23.22C55.6714 22.8887 55.2421 22.429 54.9341 21.841C54.6261 21.2483 54.4721 20.5577 54.4721 19.769C54.4721 18.943 54.6238 18.229 54.9271 17.627C55.2304 17.0203 55.6528 16.5537 56.1941 16.227C56.7401 15.8957 57.3794 15.73 58.1121 15.73C58.8728 15.73 59.5191 15.905 60.0511 16.255C60.5878 16.605 60.9891 17.1043 61.2551 17.753C61.5258 18.4017 61.6424 19.174 61.6051 20.07H60.3451V19.622C60.3311 18.6933 60.1421 18.0003 59.7781 17.543C59.4141 17.081 58.8728 16.85 58.1541 16.85C57.3841 16.85 56.7984 17.0973 56.3971 17.592C55.9958 18.0867 55.7951 18.796 55.7951 19.72C55.7951 20.6113 55.9958 21.302 56.3971 21.792C56.7984 22.282 57.3701 22.527 58.1121 22.527C58.6114 22.527 59.0454 22.4127 59.4141 22.184C59.7828 21.9553 60.0721 21.6263 60.2821 21.197L61.4791 21.61C61.1851 22.2773 60.7418 22.7953 60.1491 23.164C59.5611 23.528 58.9008 23.71 58.1681 23.71ZM55.3751 20.07V19.069H60.9611V20.07H55.3751ZM63.1636 23.5V15.94H64.2766V17.767L64.0946 17.529C64.1833 17.2957 64.2976 17.081 64.4376 16.885C64.5823 16.689 64.7433 16.528 64.9206 16.402C65.1166 16.2433 65.3383 16.122 65.5856 16.038C65.8329 15.954 66.0849 15.905 66.3416 15.891C66.5983 15.8723 66.8386 15.8887 67.0626 15.94V17.109C66.8013 17.039 66.5143 17.0203 66.2016 17.053C65.8889 17.0857 65.5996 17.2 65.3336 17.396C65.0909 17.5687 64.9019 17.7787 64.7666 18.026C64.6359 18.2733 64.5449 18.5417 64.4936 18.831C64.4423 19.1157 64.4166 19.4073 64.4166 19.706V23.5H63.1636Z" fill="#222222"/>
</g>
<g id="Frame 9">
<rect x="100" width="129" height="36" rx="8" fill="#333333"/>
<path id="Continuer" d="M121.124 23.71C120.121 23.71 119.269 23.4883 118.569 23.045C117.869 22.6017 117.335 21.9857 116.966 21.197C116.602 20.4083 116.42 19.496 116.42 18.46C116.42 17.424 116.602 16.5117 116.966 15.723C117.335 14.9343 117.869 14.3183 118.569 13.875C119.269 13.4317 120.121 13.21 121.124 13.21C122.291 13.21 123.25 13.5063 124.001 14.099C124.757 14.6917 125.277 15.4897 125.562 16.493L124.295 16.829C124.09 16.0777 123.723 15.485 123.196 15.051C122.669 14.617 121.978 14.4 121.124 14.4C120.373 14.4 119.747 14.5703 119.248 14.911C118.749 15.2517 118.373 15.7277 118.121 16.339C117.869 16.9457 117.741 17.6527 117.736 18.46C117.731 19.2627 117.855 19.9697 118.107 20.581C118.359 21.1877 118.737 21.6637 119.241 22.009C119.745 22.3497 120.373 22.52 121.124 22.52C121.978 22.52 122.669 22.303 123.196 21.869C123.723 21.4303 124.09 20.8377 124.295 20.091L125.562 20.427C125.277 21.4257 124.757 22.2237 124.001 22.821C123.25 23.4137 122.291 23.71 121.124 23.71ZM130.317 23.71C129.566 23.71 128.917 23.5397 128.371 23.199C127.83 22.8583 127.412 22.387 127.118 21.785C126.824 21.183 126.677 20.4923 126.677 19.713C126.677 18.9197 126.827 18.2243 127.125 17.627C127.424 17.0297 127.846 16.5653 128.392 16.234C128.938 15.898 129.58 15.73 130.317 15.73C131.073 15.73 131.724 15.9003 132.27 16.241C132.816 16.577 133.234 17.046 133.523 17.648C133.817 18.2453 133.964 18.9337 133.964 19.713C133.964 20.5017 133.817 21.197 133.523 21.799C133.229 22.3963 132.809 22.8653 132.263 23.206C131.717 23.542 131.069 23.71 130.317 23.71ZM130.317 22.527C131.101 22.527 131.685 22.2657 132.067 21.743C132.45 21.2203 132.641 20.5437 132.641 19.713C132.641 18.859 132.448 18.18 132.06 17.676C131.673 17.1673 131.092 16.913 130.317 16.913C129.79 16.913 129.356 17.032 129.015 17.27C128.675 17.508 128.42 17.837 128.252 18.257C128.084 18.677 128 19.1623 128 19.713C128 20.5623 128.196 21.2437 128.588 21.757C128.98 22.2703 129.557 22.527 130.317 22.527ZM140.888 23.5V19.713C140.888 19.3537 140.856 19.0083 140.79 18.677C140.73 18.3457 140.62 18.0493 140.461 17.788C140.307 17.522 140.097 17.312 139.831 17.158C139.57 17.004 139.239 16.927 138.837 16.927C138.525 16.927 138.24 16.9807 137.983 17.088C137.731 17.1907 137.514 17.3493 137.332 17.564C137.15 17.7787 137.008 18.0493 136.905 18.376C136.807 18.698 136.758 19.0783 136.758 19.517L135.939 19.265C135.939 18.5323 136.07 17.9047 136.331 17.382C136.597 16.8547 136.968 16.451 137.444 16.171C137.925 15.8863 138.49 15.744 139.138 15.744C139.628 15.744 140.046 15.821 140.391 15.975C140.737 16.129 141.024 16.3343 141.252 16.591C141.481 16.843 141.661 17.1277 141.791 17.445C141.922 17.7577 142.013 18.0773 142.064 18.404C142.12 18.726 142.148 19.0317 142.148 19.321V23.5H140.888ZM135.498 23.5V15.94H136.618V17.963H136.758V23.5H135.498ZM148.189 23.5C147.741 23.5887 147.298 23.6237 146.859 23.605C146.425 23.591 146.038 23.5047 145.697 23.346C145.357 23.1827 145.098 22.9307 144.92 22.59C144.771 22.2913 144.689 21.9903 144.675 21.687C144.666 21.379 144.661 21.0313 144.661 20.644V13.84H145.907V20.588C145.907 20.896 145.91 21.1597 145.914 21.379C145.924 21.5983 145.973 21.7873 146.061 21.946C146.229 22.2447 146.495 22.4197 146.859 22.471C147.228 22.5223 147.671 22.5083 148.189 22.429V23.5ZM143.128 16.969V15.94H148.189V16.969H143.128ZM149.864 14.603V13.315H151.11V14.603H149.864ZM149.864 23.5V15.94H151.11V23.5H149.864ZM158.593 23.5V19.713C158.593 19.3537 158.561 19.0083 158.495 18.677C158.435 18.3457 158.325 18.0493 158.166 17.788C158.012 17.522 157.802 17.312 157.536 17.158C157.275 17.004 156.944 16.927 156.542 16.927C156.23 16.927 155.945 16.9807 155.688 17.088C155.436 17.1907 155.219 17.3493 155.037 17.564C154.855 17.7787 154.713 18.0493 154.61 18.376C154.512 18.698 154.463 19.0783 154.463 19.517L153.644 19.265C153.644 18.5323 153.775 17.9047 154.036 17.382C154.302 16.8547 154.673 16.451 155.149 16.171C155.63 15.8863 156.195 15.744 156.843 15.744C157.333 15.744 157.751 15.821 158.096 15.975C158.442 16.129 158.729 16.3343 158.957 16.591C159.186 16.843 159.366 17.1277 159.496 17.445C159.627 17.7577 159.718 18.0773 159.769 18.404C159.825 18.726 159.853 19.0317 159.853 19.321V23.5H158.593ZM153.203 23.5V15.94H154.323V17.963H154.463V23.5H153.203ZM164.543 23.696C164.058 23.696 163.64 23.619 163.29 23.465C162.945 23.311 162.658 23.1057 162.429 22.849C162.201 22.5923 162.021 22.3077 161.89 21.995C161.76 21.6823 161.666 21.3627 161.61 21.036C161.559 20.7093 161.533 20.4037 161.533 20.119V15.94H162.793V19.727C162.793 20.0817 162.826 20.4247 162.891 20.756C162.957 21.0873 163.066 21.386 163.22 21.652C163.379 21.918 163.589 22.128 163.85 22.282C164.116 22.436 164.448 22.513 164.844 22.513C165.157 22.513 165.442 22.4593 165.698 22.352C165.955 22.2447 166.174 22.086 166.356 21.876C166.538 21.6613 166.678 21.3907 166.776 21.064C166.874 20.7373 166.923 20.357 166.923 19.923L167.742 20.175C167.742 20.903 167.609 21.5307 167.343 22.058C167.082 22.5853 166.711 22.9913 166.23 23.276C165.754 23.556 165.192 23.696 164.543 23.696ZM167.063 23.5V21.477H166.923V15.94H168.176V23.5H167.063ZM173.412 23.71C172.67 23.71 172.022 23.5467 171.466 23.22C170.916 22.8887 170.486 22.429 170.178 21.841C169.87 21.2483 169.716 20.5577 169.716 19.769C169.716 18.943 169.868 18.229 170.171 17.627C170.475 17.0203 170.897 16.5537 171.438 16.227C171.984 15.8957 172.624 15.73 173.356 15.73C174.117 15.73 174.763 15.905 175.295 16.255C175.832 16.605 176.233 17.1043 176.499 17.753C176.77 18.4017 176.887 19.174 176.849 20.07H175.589V19.622C175.575 18.6933 175.386 18.0003 175.022 17.543C174.658 17.081 174.117 16.85 173.398 16.85C172.628 16.85 172.043 17.0973 171.641 17.592C171.24 18.0867 171.039 18.796 171.039 19.72C171.039 20.6113 171.24 21.302 171.641 21.792C172.043 22.282 172.614 22.527 173.356 22.527C173.856 22.527 174.29 22.4127 174.658 22.184C175.027 21.9553 175.316 21.6263 175.526 21.197L176.723 21.61C176.429 22.2773 175.986 22.7953 175.393 23.164C174.805 23.528 174.145 23.71 173.412 23.71ZM170.619 20.07V19.069H176.205V20.07H170.619ZM178.408 23.5V15.94H179.521V17.767L179.339 17.529C179.427 17.2957 179.542 17.081 179.682 16.885C179.826 16.689 179.987 16.528 180.165 16.402C180.361 16.2433 180.582 16.122 180.83 16.038C181.077 15.954 181.329 15.905 181.586 15.891C181.842 15.8723 182.083 15.8887 182.307 15.94V17.109C182.045 17.039 181.758 17.0203 181.446 17.053C181.133 17.0857 180.844 17.2 180.578 17.396C180.335 17.5687 180.146 17.7787 180.011 18.026C179.88 18.2733 179.789 18.5417 179.738 18.831C179.686 19.1157 179.661 19.4073 179.661 19.706V23.5H178.408Z" fill="white"/>
<g id="solar:arrow-right-linear">
<path id="Vector" d="M196.333 18H209.667M209.667 18L204.667 13M209.667 18L204.667 23" stroke="white" stroke-width="1.5" stroke-linecap="round" stroke-linejoin="round"/>
</g>
</g>
</g>
</svg>
